<svg width="24" height="25" viewBox="0 0 24 25" fill="none" xmlns="http://www.w3.org/2000/svg">
<path fill-rule="evenodd" clip-rule="evenodd" d="M20.2639 16.1712H14.3683L13.9938 15.6851V16.1712H12.7161V15.3955C12.5545 15.4558 12.3712 15.4917 12.1665 15.4917H11.9581V16.1712H10.0643L9.77422 15.7666L9.49337 16.1712H6.41255V13.1991H9.50533L9.79239 13.5978L10.0762 13.1991H20.9414V3.5H3V10.7869L3.62226 9.33675H4.86074L5.1807 10.0811V9.33675H6.69405L6.89339 9.92588L7.09274 9.33675H13.6682V9.61337C13.9144 9.42358 14.2341 9.33675 14.5833 9.33675H16.6251L16.9451 10.0811V9.33675H18.1684L18.5247 9.88947V9.33675H19.8357V12.3089H18.5459L18.2108 11.7893V12.3089H16.3804L16.2082 11.8678H15.8215L15.6495 12.3089H14.5501C14.2596 12.3089 13.931 12.2497 13.6682 12.0525V12.3089H11.8105L11.436 11.8227V12.3089H4.61601L4.44381 11.8678H4.05731L3.88517 12.3089H3V21.4414H20.9414V15.9775C20.7587 16.0981 20.5266 16.1712 20.2639 16.1712Z" fill="#006FAC"/>
<path fill-rule="evenodd" clip-rule="evenodd" d="M4.90601 11.88H5.51003L4.60693 9.76564H3.90921L3.00317 11.88H3.59523L3.77042 11.4481H4.73081L4.90601 11.88ZM3.95459 10.9889L4.24763 10.264L4.54366 10.9889H3.95459ZM6.65482 11.88H7.12282L7.68176 10.3153V11.88H8.21332V9.76564H7.36755L6.89633 11.1128L6.42211 9.76564H5.56737V11.88H6.09917V10.3153L6.65482 11.88ZM10.2913 10.2399V9.76564H8.56962V11.88H10.2913V11.4058H9.10739V11.0465H10.2641V10.5843H9.10739V10.2399H10.2913ZM11.1311 11.1309H11.3394L11.9706 11.88H12.6322L11.9465 11.1098C12.2938 11.0343 12.5022 10.7776 12.5022 10.4484C12.5022 10.0437 12.2213 9.76564 11.7683 9.76564H10.5934V11.88H11.1311V11.1309ZM11.7139 10.2399C11.8769 10.2399 11.9617 10.3395 11.9617 10.4574C11.9617 10.5782 11.8769 10.6719 11.7139 10.6719H11.1311V10.2399H11.7139ZM12.7167 11.88H13.2545V9.76564H12.7167V11.88ZM14.4957 11.88H14.5381L14.7583 11.4058H14.5861C14.248 11.4058 14.0487 11.2005 14.0487 10.8379V10.8078C14.0487 10.4905 14.2268 10.255 14.5772 10.255H15.1451V9.76564H14.5348C13.8705 9.76564 13.5141 10.2067 13.5141 10.8078V10.8379C13.5141 11.4873 13.8887 11.88 14.4957 11.88ZM16.6704 11.88H17.2745L16.3714 9.76564H15.6736L14.7675 11.88H15.3594L15.5346 11.4481H16.4952L16.6704 11.88ZM15.719 10.9889L16.0118 10.264L16.3078 10.9889H15.719ZM18.7362 11.88H19.3886V9.76564H18.8541V11.0767L18.0113 9.76564H17.3318V11.88H17.8663V10.5209L18.7362 11.88Z" fill="#006FAC"/>
<path fill-rule="evenodd" clip-rule="evenodd" d="M8.58117 14.1024V13.6281H6.8595V15.7425H8.58117V15.2683H7.39728V14.9087H8.55403V14.4468H7.39728V14.1024H8.58117ZM10.2787 15.7425H10.9522L10.1005 14.6762L10.9463 13.6281H10.2906L9.79227 14.2775L9.2939 13.6281H8.62057L9.4661 14.6882L8.62356 15.7425H9.27895L9.77732 15.0869L10.2787 15.7425ZM10.9976 13.6281V15.7425H11.5351V15.0538H12.1693C12.6346 15.0538 12.9214 14.7488 12.9214 14.3411C12.9214 13.9182 12.6406 13.6281 12.1875 13.6281H10.9976ZM12.3809 14.344C12.3809 14.4739 12.2961 14.5796 12.1332 14.5796H11.5351V14.1024H12.1332C12.2961 14.1024 12.3809 14.211 12.3809 14.344ZM13.6887 14.9935H13.897L14.5284 15.7425H15.1898L14.5043 14.9723C14.8516 14.8968 15.0599 14.6398 15.0599 14.3107C15.0599 13.906 14.7792 13.6281 14.3261 13.6281H13.1512V15.7425H13.6887V14.9935ZM14.2715 14.1024C14.4347 14.1024 14.5192 14.202 14.5192 14.3199C14.5192 14.4408 14.4347 14.5342 14.2715 14.5342H13.6887V14.1024H14.2715ZM16.996 14.1024V13.6281H15.2742V15.7425H16.996V15.2683H15.812V14.9087H16.9688V14.4468H15.812V14.1024H16.996ZM18.3279 15.2683H17.2347V15.7425H18.3249C18.7841 15.7425 19.056 15.4644 19.056 15.0568C19.056 14.6733 18.8173 14.4497 18.3974 14.4497H17.896C17.7844 14.4497 17.7059 14.3802 17.7059 14.2746C17.7059 14.1689 17.7844 14.1024 17.896 14.1024H18.8083L19.0167 13.6281H17.902C17.443 13.6281 17.1681 13.909 17.1681 14.2927C17.1681 14.6914 17.4278 14.921 17.8298 14.921H18.3279C18.4398 14.921 18.5213 14.9904 18.5213 15.0962C18.5213 15.2018 18.4398 15.2683 18.3279 15.2683ZM20.2641 15.2683H19.1706V15.7425H20.2611C20.7201 15.7425 20.992 15.4644 20.992 15.0568C20.992 14.6733 20.7533 14.4497 20.3336 14.4497H19.8322C19.7204 14.4497 19.6418 14.3802 19.6418 14.2746C19.6418 14.1689 19.7204 14.1024 19.8322 14.1024H20.7443L20.9526 13.6281H19.8382C19.379 13.6281 19.1041 13.909 19.1041 14.2927C19.1041 14.6914 19.364 14.921 19.7657 14.921H20.2641C20.3757 14.921 20.4575 14.9904 20.4575 15.0962C20.4575 15.2018 20.3757 15.2683 20.2641 15.2683Z" fill="#006FAC"/>
</svg>
