<svg xmlns="http://www.w3.org/2000/svg" width="16" height="17" fill="none" viewBox="0 0 16 17">
    <path fill="#000" d="M11.678 8.87c-.006-1.065.477-1.868 1.452-2.46-.546-.782-1.37-1.212-2.458-1.294-1.03-.082-2.156.6-2.569.6-.436 0-1.433-.572-2.217-.572-1.619.025-3.34 1.29-3.34 3.865 0 .761.14 1.547.418 2.357.372 1.065 1.713 3.676 3.111 3.634.731-.017 1.248-.519 2.2-.519.923 0 1.402.519 2.217.519 1.411-.02 2.624-2.394 2.977-3.463-1.892-.892-1.79-2.612-1.79-2.667zm-1.642-4.765c.792-.94.72-1.797.697-2.105-.7.04-1.51.477-1.97 1.013-.508.575-.807 1.285-.743 2.087.757.058 1.447-.331 2.016-.995z"/>
</svg>
