<svg xmlns="http://www.w3.org/2000/svg" width="24" height="24" fill="none" viewBox="0 0 24 24">
    <path fill="#464360" d="M18 4h-1V3c0-.265-.105-.52-.293-.707C16.52 2.105 16.265 2 16 2c-.265 0-.52.105-.707.293C15.105 2.48 15 2.735 15 3v1H9V3c0-.265-.105-.52-.293-.707C8.52 2.105 8.265 2 8 2c-.265 0-.52.105-.707.293C7.105 2.48 7 2.735 7 3v1H6c-.796 0-1.559.316-2.121.879C3.316 5.44 3 6.204 3 7v12c0 .796.316 1.559.879 2.121C4.44 21.684 5.204 22 6 22h12c.796 0 1.559-.316 2.121-.879.563-.562.879-1.325.879-2.121V7c0-.796-.316-1.559-.879-2.121C19.56 4.316 18.796 4 18 4zM6 6h1v1c0 .265.105.52.293.707C7.48 7.895 7.735 8 8 8c.265 0 .52-.105.707-.293C8.895 7.52 9 7.265 9 7V6h6v1c0 .265.105.52.293.707.187.188.442.293.707.293.265 0 .52-.105.707-.293C16.895 7.52 17 7.265 17 7V6h1c.265 0 .52.105.707.293.188.187.293.442.293.707v4H5V7c0-.265.105-.52.293-.707C5.48 6.105 5.735 6 6 6zm12 14H6c-.265 0-.52-.105-.707-.293C5.105 19.52 5 19.265 5 19v-6h14v6c0 .265-.105.52-.293.707-.187.188-.442.293-.707.293z"/>
    <path fill="#464360" d="M8 17c.552 0 1-.448 1-1s-.448-1-1-1-1 .448-1 1 .448 1 1 1zM16 15h-4c-.265 0-.52.105-.707.293-.188.187-.293.442-.293.707 0 .265.105.52.293.707.187.188.442.293.707.293h4c.265 0 .52-.105.707-.293.188-.187.293-.442.293-.707 0-.265-.105-.52-.293-.707C16.52 15.105 16.265 15 16 15z"/>
</svg>
