<svg xmlns="http://www.w3.org/2000/svg" width="18" height="18" fill="none" viewBox="0 0 18 18">
    <path fill="#464360" fill-rule="evenodd" d="M15 3H3c-.833 0-1.492.667-1.492 1.5l-.008 9c0 .832.667 1.5 1.5 1.5h12c.832 0 1.5-.668 1.5-1.5v-9c0-.833-.668-1.5-1.5-1.5zm0 10.5H3v-9h12v9z" clip-rule="evenodd"/>
    <path fill="#464360" fill-rule="evenodd" d="M5.338 5.175c-.494 0-.913.39-.913.868v1.414c0 .477.42.868.913.868h2.074c.493 0 .913-.39.913-.868V6.043c0-.477-.42-.868-.913-.868H5.338zm.823 2.461c0-.223-.115-.421-.288-.546v-.588c.167-.077.288-.24.288-.434 0-.23-.169-.42-.388-.47h1.204c-.22.05-.389.24-.389.47 0 .193.122.357.289.434v.588c-.173.125-.289.322-.289.546 0 .095.021.185.058.266h-.542c.037-.083.057-.174.057-.266zM4.863 6.042c0-.206.173-.397.392-.437-.027.013-.051.03-.071.054-.038.043-.057.1-.051.157.006.057.035.109.08.144.044.034.1.05.155.047h.286c.042 0 .069.03.069.061 0 .03-.027.061-.07.061h-.79v-.087zm2.387-.398c-.022-.02-.048-.036-.076-.046h.238c.256 0 .474.212.474.445v.086h-.79c-.043 0-.07-.03-.07-.06 0-.031.027-.062.07-.062.057 0 .112-.022.154-.06.041-.04.065-.094.065-.152 0-.057-.024-.111-.065-.15zm-2.387.908h.572v.396h-.572v-.396zm2.452 0h.571v.396h-.57v-.396zm-2.452.818h.574c.156 0 .286.129.286.266 0 .138-.13.266-.286.266h-.099c-.256 0-.475-.212-.475-.445V7.37zm2.45 0h.573v.087c0 .233-.218.445-.474.445h-.1c-.155 0-.285-.128-.285-.266 0-.137.13-.266.285-.266z" clip-rule="evenodd"/>
    <path fill="#464360" d="M4.5 9.75h9v.75h-9v-.75zM4.5 11.25h2.25V12H4.5v-.75zM7.5 11.25h3V12h-3v-.75zM11.25 11.25h2.25V12h-2.25v-.75z"/>
</svg>
