<svg width="24" height="25" viewBox="0 0 24 25" fill="none" xmlns="http://www.w3.org/2000/svg">
<path fill-rule="evenodd" clip-rule="evenodd" d="M13.5168 19.4723C17.404 19.4905 20.9519 16.3579 20.9519 12.5469C20.9519 8.37929 17.404 5.49861 13.5168 5.5H10.1715C6.23782 5.49861 3 8.38015 3 12.5469C3 16.3587 6.23782 19.4906 10.1715 19.4723H13.5168V19.4723Z" fill="#0079BE"/>
<path fill-rule="evenodd" clip-rule="evenodd" d="M10.1878 6.07812C6.59327 6.07923 3.68053 8.94161 3.67969 12.4744C3.68053 16.0065 6.59325 18.8686 10.1878 18.8697C13.7831 18.8686 16.6965 16.0065 16.697 12.4744C16.6964 8.94161 13.7831 6.07923 10.1878 6.07812V6.07812ZM6.06248 12.4744V12.4744C6.06587 10.7481 7.16329 9.27597 8.71081 8.691V16.2568C7.16329 15.6722 6.06584 14.2009 6.06248 12.4744V12.4744ZM11.6642 16.2585V16.2585V8.69075C13.2123 9.27431 14.3114 10.7472 14.3142 12.4744C14.3114 14.202 13.2123 15.6738 11.6642 16.2585V16.2585Z" fill="white"/>
<path fill-rule="evenodd" clip-rule="evenodd" d="M13.5168 19.4723C17.404 19.4905 20.9519 16.3579 20.9519 12.5469C20.9519 8.37929 17.404 5.49861 13.5168 5.5H10.1715C6.23782 5.49861 3 8.38015 3 12.5469C3 16.3587 6.23782 19.4906 10.1715 19.4723H13.5168V19.4723Z" fill="#0079BE"/>
<path fill-rule="evenodd" clip-rule="evenodd" d="M10.1878 6.07812C6.59327 6.07923 3.68053 8.94161 3.67969 12.4744C3.68053 16.0065 6.59325 18.8686 10.1878 18.8697C13.7831 18.8686 16.6965 16.0065 16.697 12.4744C16.6964 8.94161 13.7831 6.07923 10.1878 6.07812V6.07812ZM6.06248 12.4744V12.4744C6.06587 10.7481 7.16329 9.27597 8.71081 8.691V16.2568C7.16329 15.6722 6.06584 14.2009 6.06248 12.4744V12.4744ZM11.6642 16.2585V16.2585V8.69075C13.2123 9.27431 14.3114 10.7472 14.3142 12.4744C14.3114 14.202 13.2123 15.6738 11.6642 16.2585V16.2585Z" fill="white"/>
</svg>
