<svg width="24" height="25" viewBox="0 0 24 25" fill="none" xmlns="http://www.w3.org/2000/svg">
<path fill-rule="evenodd" clip-rule="evenodd" d="M14.2301 14.1219C14.2296 14.1224 14.2292 14.1228 14.2288 14.1232L14.1804 14.0906C14.0412 14.3166 13.824 14.4996 13.5497 14.6185C13.0281 14.8454 12.5448 14.7871 12.1977 14.4826L12.1658 14.5311C12.1654 14.5306 12.1653 14.5301 12.1648 14.5301L11.5728 15.4157C11.7198 15.5179 11.8775 15.6043 12.0433 15.6735C12.6972 15.9451 13.3663 15.9326 14.0254 15.6459C14.5022 15.4394 14.8762 15.1242 15.1319 14.7249L14.2301 14.1219ZM12.3821 11.9369C11.8313 12.1736 11.5473 12.6903 11.6057 13.2962L13.9392 12.2919C13.5379 11.8204 13.0157 11.6641 12.3821 11.9369V11.9369ZM10.8329 14.6347C10.7772 14.5445 10.7015 14.4001 10.6559 14.294C10.3867 13.669 10.3737 13.0222 10.6011 12.4012C10.8511 11.7204 11.3286 11.199 11.9455 10.9336C12.7212 10.5998 13.5791 10.6656 14.3225 11.1067C14.7948 11.3776 15.1295 11.7959 15.3838 12.3875C15.4162 12.4631 15.4446 12.5441 15.4725 12.6128L10.8329 14.6347Z" fill="#1A1919"/>
<path fill-rule="evenodd" clip-rule="evenodd" d="M4.4289 10.3697C4.67599 10.2871 4.94016 10.2427 5.21511 10.2427C6.41442 10.2427 7.41567 11.0945 7.64502 12.2268L9.34505 11.8801C8.95493 9.95592 7.25439 8.50781 5.21511 8.50781C4.74783 8.50781 4.29895 8.58394 3.87891 8.72424L4.4289 10.3697Z" fill="#F9C623"/>
<path fill-rule="evenodd" clip-rule="evenodd" d="M2.42243 15.8794L3.57205 14.5796C3.05884 14.125 2.73512 13.4615 2.73512 12.7223C2.73512 11.9836 3.05846 11.3204 3.57135 10.8663L2.42145 9.56641C1.54998 10.3385 1 11.4664 1 12.7223C1 13.979 1.5502 15.1072 2.42243 15.8794" fill="#009ACB"/>
<path fill-rule="evenodd" clip-rule="evenodd" d="M7.64598 13.2188C7.41571 14.3504 6.41544 15.2006 5.21657 15.2006C4.94139 15.2006 4.67654 15.1563 4.42959 15.0732L3.87891 16.7193C4.29894 16.8595 4.74875 16.9354 5.21657 16.9354C7.25391 16.9354 8.9541 15.4897 9.34581 13.5672L7.64598 13.2188Z" fill="#DC3E2A"/>
<path fill-rule="evenodd" clip-rule="evenodd" d="M17.0942 9.62891V14.5526L17.8597 14.8628L17.4248 15.8777L16.5798 15.5259C16.3902 15.4438 16.2611 15.3182 16.1633 15.1762C16.0699 15.0316 16 14.8332 16 14.566V9.62891H17.0942Z" fill="#1A1919"/>
<path fill-rule="evenodd" clip-rule="evenodd" d="M19.074 13.2976C19.0745 12.8783 19.2595 12.5023 19.5525 12.2468L18.7672 11.3711C18.2345 11.842 17.899 12.5299 17.8984 13.2964C17.8976 14.0631 18.2326 14.7519 18.7647 15.2239L19.5491 14.3473C19.2576 14.0907 19.0737 13.7159 19.074 13.2976" fill="#1A1919"/>
<path fill-rule="evenodd" clip-rule="evenodd" d="M20.4699 14.6952C20.3152 14.6948 20.1663 14.6693 20.0274 14.623L19.6523 15.7382C19.9086 15.8243 20.1832 15.8711 20.4687 15.8715C21.7122 15.8727 22.7505 14.9904 22.9911 13.8175L21.8382 13.582C21.7071 14.218 21.1442 14.6958 20.4699 14.6952" fill="#1A1919"/>
<path fill-rule="evenodd" clip-rule="evenodd" d="M20.4757 10.7266C20.1906 10.7262 19.9162 10.7726 19.6602 10.8579L20.0319 11.974C20.1712 11.9279 20.3201 11.9025 20.4745 11.9025C21.1505 11.9032 21.7138 12.3838 21.8418 13.0214L22.9948 12.7876C22.7576 11.613 21.7202 10.7274 20.4757 10.7266" fill="#1A1919"/>
</svg>
