<svg xmlns="http://www.w3.org/2000/svg" width="32" height="32" fill="none" viewBox="0 0 32 32">
    <path fill="#464360" d="M16 27.214c-.176 0-.35-.033-.512-.1-.162-.066-.31-.163-.435-.287L4.693 16.454c-1.3-1.314-2.028-3.086-2.028-4.934 0-1.847.729-3.62 2.028-4.933 1.31-1.306 3.084-2.04 4.933-2.04 1.85 0 3.624.734 4.934 2.04L16 8.027l1.44-1.44c1.31-1.306 3.084-2.04 4.933-2.04 1.85 0 3.624.734 4.933 2.04 1.3 1.313 2.029 3.086 2.029 4.933 0 1.848-.729 3.62-2.029 4.934l-10.36 10.373c-.124.123-.272.221-.434.288-.163.066-.337.1-.512.099z"/>
</svg>
