<svg xmlns="http://www.w3.org/2000/svg" width="16" height="17" fill="none" viewBox="0 0 16 17">
    <path fill="#005BAA" fill-rule="evenodd" d="M13.334 4.833H11.88c.073-.206.12-.433.12-.666 0-1.107-.893-2-2-2-.7 0-1.306.36-1.666.9L8 3.513l-.333-.453C7.307 2.527 6.7 2.167 6 2.167c-1.106 0-2 .893-2 2 0 .233.047.46.12.666H2.667c-.74 0-1.327.594-1.327 1.334L1.333 13.5c0 .74.594 1.333 1.334 1.333h10.666c.74 0 1.334-.593 1.334-1.333V6.167c0-.74-.594-1.334-1.333-1.334zM10 3.5c.367 0 .667.3.667.667 0 .366-.3.666-.667.666-.367 0-.666-.3-.666-.666 0-.367.3-.667.666-.667zm-3.333.667c0-.367-.3-.667-.667-.667-.367 0-.667.3-.667.667 0 .366.3.666.667.666.367 0 .667-.3.667-.666zm6.667 9.333H2.667v-1.333h10.667V13.5zM2.667 10.167h10.667v-4H9.947l1.387 1.886-1.08.78L8 5.767 5.747 8.833l-1.08-.78 1.386-1.886H2.667v4z" clip-rule="evenodd"/>
</svg>
