<svg xmlns="http://www.w3.org/2000/svg" width="17" height="17" fill="none" viewBox="0 0 17 17">
    <path fill="#FFC107" d="M15.037 7.194H14.5v-.027h-6v2.666h3.768C11.718 11.386 10.24 12.5 8.5 12.5c-2.21 0-4-1.791-4-4s1.79-4 4-4c1.02 0 1.947.385 2.654 1.013l1.885-1.886c-1.19-1.11-2.783-1.794-4.54-1.794-3.68 0-6.666 2.985-6.666 6.667s2.985 6.667 6.667 6.667 6.667-2.985 6.667-6.667c0-.447-.046-.883-.13-1.306z"/>
    <path fill="#FF3D00" d="M2.602 5.397l2.19 1.606C5.385 5.536 6.82 4.5 8.5 4.5c1.02 0 1.947.385 2.654 1.013l1.885-1.886c-1.19-1.11-2.783-1.794-4.539-1.794-2.56 0-4.781 1.446-5.898 3.564z"/>
    <path fill="#4CAF50" d="M8.5 15.167c1.722 0 3.287-.66 4.47-1.731l-2.064-1.746c-.692.526-1.537.81-2.406.81-1.734 0-3.206-1.106-3.761-2.649l-2.174 1.675c1.103 2.16 3.344 3.64 5.935 3.64z"/>
    <path fill="#1976D2" d="M15.037 7.194H14.5v-.027h-6v2.666h3.768c-.263.74-.737 1.385-1.363 1.857h.001l2.064 1.746c-.146.132 2.197-1.603 2.197-4.936 0-.447-.046-.883-.13-1.306z"/>
</svg>
