<svg xmlns="http://www.w3.org/2000/svg" width="17" height="17" fill="none" viewBox="0 0 17 17">
    <path fill="#005BAA" fill-rule="evenodd" d="M1.833 8.5c0-3.68 2.987-6.667 6.667-6.667 3.68 0 6.666 2.987 6.666 6.667 0 3.68-2.986 6.667-6.666 6.667S1.833 12.18 1.833 8.5zm7.333 2.667V12.5H7.833v-1.333h1.333zM8.5 13.833c-2.94 0-5.334-2.393-5.334-5.333 0-2.94 2.394-5.333 5.334-5.333 2.94 0 5.333 2.393 5.333 5.333 0 2.94-2.393 5.333-5.333 5.333zM5.833 7.167C5.833 5.693 7.026 4.5 8.5 4.5c1.473 0 2.666 1.193 2.666 2.667 0 .855-.526 1.315-1.04 1.763-.486.426-.96.84-.96 1.57H7.833c0-1.214.628-1.696 1.18-2.119.434-.332.82-.628.82-1.214 0-.734-.6-1.334-1.333-1.334-.734 0-1.334.6-1.334 1.334H5.833z" clip-rule="evenodd"/>
</svg>
