<?xml version="1.0" encoding="UTF-8"?>
<svg xmlns="http://www.w3.org/2000/svg" xmlns:xlink="http://www.w3.org/1999/xlink" width="32" height="25" viewBox="0 0 32 25" version="1.1">
<defs>
<linearGradient id="linear0" gradientUnits="userSpaceOnUse" x1="-0.575271" y1="0.501242" x2="2.323912" y2="0.501242" gradientTransform="matrix(3.03125,0,0,1.894531,23.199219,12.882812)">
<stop offset="0" style="stop-color:rgb(0%,47.45098%,25.098039%);stop-opacity:1;"/>
<stop offset="0.2285" style="stop-color:rgb(0%,52.941176%,24.705882%);stop-opacity:1;"/>
<stop offset="0.7433" style="stop-color:rgb(25.098039%,65.490196%,21.568627%);stop-opacity:1;"/>
<stop offset="1" style="stop-color:rgb(36.078431%,70.980392%,19.215686%);stop-opacity:1;"/>
</linearGradient>
<linearGradient id="linear1" gradientUnits="userSpaceOnUse" x1="0.00182517" y1="0.4996" x2="1.002734" y2="0.4996" gradientTransform="matrix(8.78125,0,0,21.554688,21.4375,1.679688)">
<stop offset="0" style="stop-color:rgb(0%,47.45098%,25.098039%);stop-opacity:1;"/>
<stop offset="0.2285" style="stop-color:rgb(0%,52.941176%,24.705882%);stop-opacity:1;"/>
<stop offset="0.7433" style="stop-color:rgb(25.098039%,65.490196%,21.568627%);stop-opacity:1;"/>
<stop offset="1" style="stop-color:rgb(36.078431%,70.980392%,19.215686%);stop-opacity:1;"/>
</linearGradient>
<linearGradient id="linear2" gradientUnits="userSpaceOnUse" x1="-0.628016" y1="0.498578" x2="2.536713" y2="0.498578" gradientTransform="matrix(2.777344,0,0,1.738281,23.199219,10.078125)">
<stop offset="0" style="stop-color:rgb(0%,47.45098%,25.098039%);stop-opacity:1;"/>
<stop offset="0.2285" style="stop-color:rgb(0%,52.941176%,24.705882%);stop-opacity:1;"/>
<stop offset="0.7433" style="stop-color:rgb(25.098039%,65.490196%,21.568627%);stop-opacity:1;"/>
<stop offset="1" style="stop-color:rgb(36.078431%,70.980392%,19.215686%);stop-opacity:1;"/>
</linearGradient>
<linearGradient id="linear3" gradientUnits="userSpaceOnUse" x1="0.00175557" y1="0.500058" x2="1.018082" y2="0.500058" gradientTransform="matrix(8.78125,0,0,21.535156,1.761719,1.679687)">
<stop offset="0" style="stop-color:rgb(12.156863%,15.686275%,43.529412%);stop-opacity:1;"/>
<stop offset="0.4751" style="stop-color:rgb(0%,30.588235%,58.039216%);stop-opacity:1;"/>
<stop offset="0.8261" style="stop-color:rgb(0%,40%,69.411765%);stop-opacity:1;"/>
<stop offset="1" style="stop-color:rgb(0%,43.529412%,73.72549%);stop-opacity:1;"/>
</linearGradient>
<linearGradient id="linear4" gradientUnits="userSpaceOnUse" x1="-0.00575856" y1="0.499142" x2="0.98133" y2="0.499142" gradientTransform="matrix(8.785156,0,0,21.574219,11.617188,1.679688)">
<stop offset="0" style="stop-color:rgb(42.352941%,17.254902%,18.431373%);stop-opacity:1;"/>
<stop offset="0.1735" style="stop-color:rgb(53.333333%,15.294118%,18.823529%);stop-opacity:1;"/>
<stop offset="0.5731" style="stop-color:rgb(74.509804%,9.411765%,20%);stop-opacity:1;"/>
<stop offset="0.8585" style="stop-color:rgb(86.27451%,1.568627%,21.176471%);stop-opacity:1;"/>
<stop offset="1" style="stop-color:rgb(90.196078%,0%,22.352941%);stop-opacity:1;"/>
</linearGradient>
</defs>
<g id="surface1">
<path style=" stroke:none;fill-rule:nonzero;fill:rgb(100%,100%,100%);fill-opacity:1;" d="M 32 19.875 C 32 22.640625 29.769531 24.894531 27.03125 24.894531 L 0 24.894531 L 0 5.019531 C 0 2.253906 2.230469 0 4.96875 0 L 32 0 Z M 32 19.875 "/>
<path style=" stroke:none;fill-rule:nonzero;fill:url(#linear0);" d="M 23.199219 14.777344 L 25.25 14.777344 C 25.308594 14.777344 25.449219 14.757812 25.507812 14.757812 C 25.898438 14.679688 26.230469 14.324219 26.230469 13.832031 C 26.230469 13.355469 25.898438 13 25.507812 12.902344 C 25.449219 12.882812 25.328125 12.882812 25.25 12.882812 L 23.199219 12.882812 Z M 23.199219 14.777344 "/>
<path style=" stroke:none;fill-rule:nonzero;fill:url(#linear1);" d="M 25.015625 1.679688 C 23.0625 1.679688 21.457031 3.28125 21.457031 5.273438 L 21.457031 9.007812 L 26.484375 9.007812 C 26.601562 9.007812 26.738281 9.007812 26.835938 9.027344 C 27.96875 9.089844 28.8125 9.679688 28.8125 10.707031 C 28.8125 11.519531 28.246094 12.210938 27.1875 12.347656 L 27.1875 12.386719 C 28.34375 12.46875 29.222656 13.117188 29.222656 14.125 C 29.222656 15.214844 28.246094 15.925781 26.953125 15.925781 L 21.4375 15.925781 L 21.4375 23.234375 L 26.660156 23.234375 C 28.617188 23.234375 30.21875 21.632812 30.21875 19.640625 L 30.21875 1.679688 Z M 25.015625 1.679688 "/>
<path style=" stroke:none;fill-rule:nonzero;fill:url(#linear2);" d="M 25.976562 10.945312 C 25.976562 10.472656 25.644531 10.15625 25.25 10.097656 C 25.210938 10.097656 25.113281 10.078125 25.054688 10.078125 L 23.199219 10.078125 L 23.199219 11.816406 L 25.054688 11.816406 C 25.113281 11.816406 25.230469 11.816406 25.25 11.796875 C 25.644531 11.734375 25.976562 11.417969 25.976562 10.945312 Z M 25.976562 10.945312 "/>
<path style=" stroke:none;fill-rule:nonzero;fill:url(#linear3);" d="M 5.339844 1.679688 C 3.382812 1.679688 1.78125 3.28125 1.78125 5.273438 L 1.78125 14.144531 C 2.777344 14.640625 3.8125 14.957031 4.851562 14.957031 C 6.082031 14.957031 6.75 14.207031 6.75 13.179688 L 6.75 8.988281 L 9.800781 8.988281 L 9.800781 13.160156 C 9.800781 14.777344 8.800781 16.101562 5.417969 16.101562 C 3.363281 16.101562 1.761719 15.648438 1.761719 15.648438 L 1.761719 23.214844 L 6.984375 23.214844 C 8.9375 23.214844 10.542969 21.613281 10.542969 19.621094 L 10.542969 1.679688 Z M 5.339844 1.679688 "/>
<path style=" stroke:none;fill-rule:nonzero;fill:url(#linear4);" d="M 15.179688 1.679688 C 13.222656 1.679688 11.617188 3.28125 11.617188 5.273438 L 11.617188 9.976562 C 12.519531 9.207031 14.082031 8.714844 16.605469 8.832031 C 17.957031 8.890625 19.402344 9.265625 19.402344 9.265625 L 19.402344 10.789062 C 18.679688 10.414062 17.820312 10.078125 16.703125 9.996094 C 14.789062 9.859375 13.632812 10.808594 13.632812 12.46875 C 13.632812 14.144531 14.789062 15.09375 16.703125 14.9375 C 17.820312 14.859375 18.679688 14.503906 19.402344 14.144531 L 19.402344 15.667969 C 19.402344 15.667969 17.976562 16.042969 16.605469 16.101562 C 14.082031 16.222656 12.519531 15.726562 11.617188 14.957031 L 11.617188 23.253906 L 16.839844 23.253906 C 18.796875 23.253906 20.402344 21.652344 20.402344 19.660156 L 20.402344 1.679688 Z M 15.179688 1.679688 "/>
</g>
</svg>
