<svg width="16" height="17" viewBox="0 0 16 17" fill="none" xmlns="http://www.w3.org/2000/svg">
<path fill-rule="evenodd" clip-rule="evenodd" d="M13.56 2.52L13.6667 2.5C13.8533 2.5 14 2.64667 14 2.83333V12.9133C14 13.0667 13.9 13.1867 13.76 13.2333L10 14.5L6 13.1L2.44 14.48L2.33333 14.5C2.14667 14.5 2 14.3533 2 14.1667V4.08667C2 3.93333 2.1 3.81333 2.24 3.76667L6 2.5L10 3.9L13.56 2.52ZM9.33333 5.08L6.66667 4.14667V11.92L9.33333 12.8533V5.08ZM3.33333 4.80667L5.33333 4.13333V11.9333L3.33333 12.7067V4.80667ZM10.6667 12.8667L12.6667 12.1933V4.3L10.6667 5.07333V12.8667Z" fill="#005BAA"/>
</svg>
