<svg width="24" height="25" viewBox="0 0 24 25" fill="none" xmlns="http://www.w3.org/2000/svg">
<path fill-rule="evenodd" clip-rule="evenodd" d="M8.51953 17.3335H14.4641V6.91797H8.51953V17.3335Z" fill="#FF5F00"/>
<path fill-rule="evenodd" clip-rule="evenodd" d="M8.89719 12.124C8.89719 10.0109 9.91193 8.12918 11.4921 6.91625C10.3364 6.02918 8.87832 5.5 7.29347 5.5C3.54157 5.5 0.5 8.46571 0.5 12.124C0.5 15.7823 3.54157 18.748 7.29347 18.748C8.87832 18.748 10.3364 18.2188 11.4921 17.3318C9.91193 16.1188 8.89719 14.2369 8.89719 12.124Z" fill="#EB001B"/>
<path fill-rule="evenodd" clip-rule="evenodd" d="M22.4841 12.124C22.4841 15.7823 19.4425 18.748 15.6908 18.748C14.1059 18.748 12.6477 18.2188 11.4922 17.3318C13.0723 16.1188 14.0869 14.2369 14.0869 12.124C14.0869 10.0109 13.0723 8.12918 11.4922 6.91625C12.6477 6.02918 14.1059 5.5 15.6908 5.5C19.4425 5.5 22.4841 8.46571 22.4841 12.124Z" fill="#F79E1B"/>
</svg>
