<svg xmlns="http://www.w3.org/2000/svg" width="24" height="24" fill="none" viewBox="0 0 24 24">
    <path fill="#005BAA" fill-rule="evenodd" d="M6 10c-1.1 0-2 .9-2 2s.9 2 2 2 2-.9 2-2-.9-2-2-2zm12 0c-1.1 0-2 .9-2 2s.9 2 2 2 2-.9 2-2-.9-2-2-2zm-8 2c0-1.1.9-2 2-2s2 .9 2 2-.9 2-2 2-2-.9-2-2z" clip-rule="evenodd"/>
    <path fill="#005BAA" d="M4.75 12c0-.686.564-1.25 1.25-1.25v-1.5c-1.514 0-2.75 1.236-2.75 2.75h1.5zM6 13.25c-.686 0-1.25-.564-1.25-1.25h-1.5c0 1.514 1.236 2.75 2.75 2.75v-1.5zM7.25 12c0 .686-.564 1.25-1.25 1.25v1.5c1.514 0 2.75-1.236 2.75-2.75h-1.5zM6 10.75c.686 0 1.25.564 1.25 1.25h1.5c0-1.514-1.236-2.75-2.75-2.75v1.5zM16.75 12c0-.686.564-1.25 1.25-1.25v-1.5c-1.514 0-2.75 1.236-2.75 2.75h1.5zM18 13.25c-.686 0-1.25-.564-1.25-1.25h-1.5c0 1.514 1.236 2.75 2.75 2.75v-1.5zM19.25 12c0 .686-.564 1.25-1.25 1.25v1.5c1.514 0 2.75-1.236 2.75-2.75h-1.5zM18 10.75c.686 0 1.25.564 1.25 1.25h1.5c0-1.514-1.236-2.75-2.75-2.75v1.5zm-6-1.5c-1.514 0-2.75 1.236-2.75 2.75h1.5c0-.686.564-1.25 1.25-1.25v-1.5zM14.75 12c0-1.514-1.236-2.75-2.75-2.75v1.5c.686 0 1.25.564 1.25 1.25h1.5zM12 14.75c1.514 0 2.75-1.236 2.75-2.75h-1.5c0 .686-.564 1.25-1.25 1.25v1.5zM9.25 12c0 1.514 1.236 2.75 2.75 2.75v-1.5c-.686 0-1.25-.564-1.25-1.25h-1.5z"/>
</svg>
