<svg xmlns="http://www.w3.org/2000/svg" width="18" height="19" fill="none" viewBox="0 0 18 19">
    <path fill="#B9B9B9" fill-rule="evenodd" d="M15.705 8.75c-.345-3.128-2.828-5.61-5.955-5.955V1.25h-1.5v1.545C5.122 3.14 2.64 5.622 2.295 8.75H.75v1.5h1.545c.345 3.127 2.827 5.61 5.955 5.955v1.545h1.5v-1.545c3.127-.345 5.61-2.827 5.955-5.955h1.545v-1.5h-1.545zM9 6.5c-1.657 0-3 1.343-3 3 0 1.658 1.343 3 3 3 1.658 0 3-1.342 3-3 0-1.657-1.342-3-3-3zm-5.25 3c0 2.902 2.348 5.25 5.25 5.25s5.25-2.348 5.25-5.25S11.902 4.25 9 4.25 3.75 6.598 3.75 9.5z" clip-rule="evenodd"/>
</svg>
