<svg width="24" height="25" viewBox="0 0 24 25" fill="none" xmlns="http://www.w3.org/2000/svg">
<path fill-rule="evenodd" clip-rule="evenodd" d="M17.9998 16.3398V11.3398C17.9998 8.26984 16.3698 5.69984 13.4998 5.01984V4.33984C13.4998 3.50984 12.8298 2.83984 11.9998 2.83984C11.1698 2.83984 10.4998 3.50984 10.4998 4.33984V5.01984C7.63979 5.69984 5.99979 8.25984 5.99979 11.3398V16.3398L3.99979 18.3398V19.3398H19.9998V18.3398L17.9998 16.3398ZM11.9998 22.3398C13.0998 22.3398 13.9998 21.4398 13.9998 20.3398H9.99978C9.99978 21.4398 10.8998 22.3398 11.9998 22.3398ZM7.99978 17.3398H15.9998V11.3398C15.9998 8.85984 14.4898 6.83984 11.9998 6.83984C9.50978 6.83984 7.99978 8.85984 7.99978 11.3398V17.3398ZM7.57979 4.41984L6.14979 2.98984C3.74978 4.81984 2.16979 7.63984 2.02979 10.8398H4.02979C4.17979 8.18984 5.53979 5.86984 7.57979 4.41984ZM21.9698 10.8398H19.9698C19.8198 8.18984 18.4498 5.86984 16.4298 4.41984L17.8498 2.98984C20.2398 4.81984 21.8198 7.63984 21.9698 10.8398Z" fill="#464360"/>
</svg>
