<svg xmlns="http://www.w3.org/2000/svg" width="40" height="40" fill="none" viewBox="0 0 40 40">
    <path fill="#B9B9B9" d="M33.533 11.183l-4.716-4.716C27.88 5.529 26.609 5 25.283 5H14.717c-1.326.001-2.597.529-3.534 1.467l-4.716 4.716C5.529 12.12 5 13.391 5 14.717V30c0 1.326.527 2.598 1.464 3.535C7.402 34.474 8.674 35 10 35h20c1.326 0 2.598-.527 3.535-1.465C34.474 32.599 35 31.326 35 30V14.717c-.001-1.326-.529-2.597-1.467-3.534zm-20-2.366c.32-.305.742-.478 1.184-.484h10.566c.442.006.864.18 1.184.484l2.85 2.85H10.683l2.85-2.85zM30 31.667H10c-.442 0-.866-.176-1.179-.489-.312-.312-.488-.736-.488-1.178V15h23.334v15c0 .442-.176.866-.489 1.178-.312.313-.736.489-1.178.489z"/>
    <path fill="#B9B9B9" d="M25 18.333c-.442 0-.866.176-1.178.489-.313.312-.488.736-.488 1.178 0 .884-.352 1.732-.977 2.357-.625.625-1.473.976-2.357.976-.884 0-1.732-.35-2.357-.976-.625-.625-.976-1.473-.976-2.357 0-.442-.176-.866-.488-1.178-.313-.313-.737-.489-1.179-.489-.442 0-.866.176-1.178.489-.313.312-.488.736-.488 1.178 0 1.768.702 3.464 1.952 4.714 1.25 1.25 2.946 1.953 4.714 1.953 1.768 0 3.464-.703 4.714-1.953 1.25-1.25 1.953-2.946 1.953-4.714 0-.442-.176-.866-.488-1.178-.313-.313-.737-.489-1.179-.489z"/>
</svg>
