<svg width="35" height="36" viewBox="0 0 35 36" fill="none" xmlns="http://www.w3.org/2000/svg">
<path d="M32.4478 -4.21848e-05L28.8019 -4.25035e-05C27.3945 -4.26266e-05 26.2497 1.14479 26.2497 2.55213L26.2497 3.0859C24.0446 1.96294 19.0365 -4.33572e-05 10.8914 -4.40693e-05L8.55801 -4.42733e-05C5.17747 -4.45688e-05 2.30736 2.41796 1.73422 5.74891L0.100824 15.2284C-0.246272 17.2512 0.312289 19.3075 1.63067 20.8738C2.94759 22.4372 4.8785 23.3341 6.92461 23.3341L13.5398 23.3341C13.1271 24.4425 12.7144 26.0584 12.7144 28.0739C12.7144 33.553 15.8149 35.0012 17.4542 35.0012C20.4818 35.0012 20.7355 32.1778 20.7355 29.5323C20.7355 26.3034 24.3567 23.62 26.2686 22.427C26.3664 23.7454 27.4587 24.7925 28.8019 24.7925L32.4478 24.7925C33.8552 24.7925 35 23.6477 35 22.2403L35 2.55213C35 1.14479 33.8552 -4.20618e-05 32.4478 -4.21848e-05ZM18.5479 29.5323C18.5479 32.8136 17.9923 32.8136 17.4542 32.8136C16.4275 32.8136 14.902 31.5507 14.902 28.0739C14.902 24.8421 16.1679 22.8616 16.1766 22.847C16.3997 22.5116 16.4216 22.0799 16.2306 21.7241C16.041 21.3682 15.6691 21.1466 15.2666 21.1466L6.92461 21.1466C5.52456 21.1466 4.20472 20.534 3.30344 19.465C2.4007 18.3946 2.0186 16.9858 2.25632 15.6018L3.88971 6.12226C4.28202 3.84426 6.24501 2.18899 8.55801 2.18899L10.8914 2.18899C20.8128 2.18754 25.783 5.29098 26.2497 5.5987L26.2497 19.9055C25.0348 20.5501 18.5479 24.2398 18.5479 29.5323ZM32.8124 22.2403C32.8124 22.4416 32.6491 22.6049 32.4478 22.6049L28.8019 22.6049C28.6006 22.6049 28.4373 22.4416 28.4373 22.2403L28.4373 2.55213C28.4373 2.35379 28.6035 2.18754 28.8019 2.18754L32.4478 2.18754C32.6491 2.18754 32.8124 2.35087 32.8124 2.55213L32.8124 22.2403Z" fill="#464360"/>
</svg>
