<svg width="35" height="36" viewBox="0 0 35 36" fill="none" xmlns="http://www.w3.org/2000/svg">
<path d="M2.55218 35.0013H6.19814C7.60548 35.0013 8.75032 33.8564 8.75032 32.4491V31.9153C10.9554 33.0383 15.9635 35.0013 24.1086 35.0013H26.442C29.8225 35.0013 32.6926 32.5833 33.2658 29.2523L34.8992 19.7728C35.2463 17.75 34.6877 15.6937 33.3693 14.1274C32.0524 12.564 30.1215 11.6671 28.0754 11.6671H21.4602C21.8729 10.5587 22.2856 8.94282 22.2856 6.92733C22.2856 1.44818 19.1851 0 17.5458 0C14.5182 0 14.2645 2.82344 14.2645 5.46895C14.2645 8.69781 10.6433 11.3812 8.73136 12.5742C8.63365 11.2558 7.54131 10.2087 6.19814 10.2087H2.55218C1.14483 10.2087 0 11.3535 0 12.7609V32.4491C0 33.8564 1.14483 35.0013 2.55218 35.0013ZM16.4521 5.46895C16.4521 2.18758 17.0077 2.18758 17.5458 2.18758C18.5725 2.18758 20.098 3.45054 20.098 6.92733C20.098 10.1591 18.8321 12.1396 18.8234 12.1542C18.6003 12.4896 18.5784 12.9213 18.7694 13.2771C18.959 13.633 19.3309 13.8547 19.7334 13.8547H28.0754C29.4754 13.8547 30.7953 14.4672 31.6966 15.5362C32.5993 16.6066 32.9814 18.0154 32.7437 19.3995L31.1103 28.879C30.718 31.157 28.755 32.8122 26.442 32.8122H24.1086C14.1872 32.8137 9.217 29.7102 8.75032 29.4025V15.0958C9.96515 14.4511 16.4521 10.7614 16.4521 5.46895ZM2.18758 12.7609C2.18758 12.5596 2.35092 12.3963 2.55218 12.3963H6.19814C6.3994 12.3963 6.56274 12.5596 6.56274 12.7609V32.4491C6.56274 32.6474 6.39648 32.8137 6.19814 32.8137H2.55218C2.35092 32.8137 2.18758 32.6503 2.18758 32.4491V12.7609Z" fill="#464360"/>
</svg>
