<svg width="24" height="24" viewBox="0 0 24 24" fill="none" xmlns="http://www.w3.org/2000/svg">
<path d="M3.9375 2.0625L3.51525 2.46075L2.46075 3.51525L2.0625 3.9375L2.367 4.4295L3.9375 7.0545L4.14825 7.4295H6.3525L9.3525 10.4062C6.672 13.0988 3.26175 16.5202 3.14175 16.641C1.9665 17.8155 1.96425 19.74 3.16425 20.8597C4.3365 22.0163 6.24675 22.0462 7.3605 20.8597L7.383 20.8358L12 16.1955L16.641 20.859L16.7108 20.9062C17.8883 22.0163 19.761 22.0312 20.8597 20.859V20.8365H20.8822C22.0312 19.6612 22.0432 17.751 20.8597 16.6403L20.8358 16.6178L16.9222 12.7267C19.5555 12.4808 21.618 10.257 21.6562 7.5705H21.6795C21.6825 7.5555 21.6795 7.53825 21.6795 7.52325V7.5C21.753 6.633 21.5655 5.8035 21.117 5.08575L20.6025 4.29L17.1097 7.782L16.0553 6.68025L19.6178 3.11775L18.5865 2.69625C17.9287 2.40686 17.2186 2.255 16.5 2.25C13.617 2.25 11.25 4.617 11.25 7.5C11.25 7.8135 11.3175 8.08575 11.367 8.367C11.0393 8.6955 10.7933 8.96475 10.4062 9.35175L7.4295 6.375V4.14825L7.0545 3.9375L4.4295 2.367L3.9375 2.0625ZM16.5 3.75C16.605 3.75 16.6785 3.8115 16.7812 3.8205L13.9455 6.65625L14.4608 7.1955L16.5705 9.375L17.0858 9.91425L20.0625 6.9375C20.0775 7.11 20.2005 7.236 20.1795 7.4295V7.5C20.1795 9.5655 18.495 11.25 16.4295 11.25C16.1543 11.25 15.8205 11.1855 15.4455 11.109L15.0465 11.0392L14.7653 11.3205L6.30525 19.8045H6.28125V19.8285C5.74875 20.4112 4.8165 20.4255 4.1955 19.8045V19.7812H4.1715C3.58875 19.2488 3.5745 18.3165 4.1955 17.6955C4.47975 17.4105 9.984 11.859 12.6795 9.16425L12.9847 8.85975L12.867 8.4375C12.7958 8.12986 12.7566 7.8157 12.75 7.5C12.75 5.4345 14.4345 3.75 16.5 3.75ZM4.1715 3.9375L5.9295 5.016V5.766L5.766 5.9295H5.016L3.9375 4.17225L4.1715 3.9375ZM15.1403 13.0545L19.8053 17.6955V17.7188H19.8278C20.4113 18.2512 20.4255 19.1835 19.8053 19.8045H19.7812V19.8285C19.2488 20.4112 18.3165 20.4255 17.6955 19.8045L13.0545 15.141L15.1403 13.0545Z" fill="#464360"/>
</svg>
