<svg width="18" height="18" viewBox="0 0 18 18" fill="none" xmlns="http://www.w3.org/2000/svg">
<path d="M16.2 8.415L12.75 5.64V3.75C12.7684 3.37121 12.6358 3.00059 12.3813 2.7194C12.1268 2.43821 11.7713 2.26941 11.3925 2.25H2.84251C2.46644 2.27322 2.11466 2.44367 1.86337 2.72444C1.61209 3.0052 1.48154 3.37366 1.50001 3.75V11.25C1.49305 11.5478 1.57494 11.841 1.73522 12.0921C1.89551 12.3432 2.12694 12.5409 2.40001 12.66C2.26189 12.9979 2.20806 13.3644 2.24316 13.7277C2.27827 14.0911 2.40126 14.4404 2.60152 14.7456C2.80178 15.0509 3.0733 15.3028 3.39264 15.4796C3.71198 15.6565 4.06957 15.753 4.43453 15.7608C4.7995 15.7686 5.16089 15.6875 5.48751 15.5245C5.81414 15.3615 6.0962 15.1215 6.30935 14.8251C6.5225 14.5287 6.66034 14.185 6.71098 13.8235C6.76162 13.4619 6.72354 13.0935 6.60001 12.75H11.37C11.2467 13.0898 11.207 13.4544 11.2545 13.8128C11.3019 14.1712 11.435 14.513 11.6425 14.809C11.85 15.1051 12.1258 15.3468 12.4465 15.5137C12.7673 15.6805 13.1235 15.7676 13.485 15.7676C13.8466 15.7676 14.2028 15.6805 14.5235 15.5137C14.8442 15.3468 15.12 15.1051 15.3275 14.809C15.535 14.513 15.6681 14.1712 15.7156 13.8128C15.763 13.4544 15.7234 13.0898 15.6 12.75H15.75C15.9489 12.75 16.1397 12.671 16.2803 12.5303C16.421 12.3897 16.5 12.1989 16.5 12V9C16.4977 8.88611 16.4695 8.77424 16.4175 8.67288C16.3655 8.57151 16.2912 8.48333 16.2 8.415ZM15 9.36V11.25H12.75V7.56L15 9.36ZM5.25001 13.5C5.25001 13.6483 5.20603 13.7933 5.12362 13.9167C5.04121 14.04 4.92407 14.1361 4.78703 14.1929C4.64998 14.2497 4.49918 14.2645 4.3537 14.2356C4.20821 14.2066 4.07457 14.1352 3.96969 14.0303C3.8648 13.9254 3.79336 13.7918 3.76443 13.6463C3.73549 13.5008 3.75034 13.35 3.80711 13.213C3.86387 13.0759 3.96 12.9588 4.08334 12.8764C4.20667 12.794 4.35168 12.75 4.50001 12.75C4.69893 12.75 4.88969 12.829 5.03034 12.9697C5.171 13.1103 5.25001 13.3011 5.25001 13.5ZM9.00001 11.25H3.00002V3.75H11.25V11.25H9.00001ZM14.25 13.5C14.25 13.6483 14.206 13.7933 14.1236 13.9167C14.0412 14.04 13.9241 14.1361 13.787 14.1929C13.65 14.2497 13.4992 14.2645 13.3537 14.2356C13.2082 14.2066 13.0746 14.1352 12.9697 14.0303C12.8648 13.9254 12.7934 13.7918 12.7644 13.6463C12.7355 13.5008 12.7503 13.35 12.8071 13.213C12.8639 13.0759 12.96 12.9588 13.0833 12.8764C13.2067 12.794 13.3517 12.75 13.5 12.75C13.6989 12.75 13.8897 12.829 14.0303 12.9697C14.171 13.1103 14.25 13.3011 14.25 13.5Z" fill="#464360"/>
</svg>
