<svg width="24" height="25" viewBox="0 0 24 25" fill="none" xmlns="http://www.w3.org/2000/svg">
<path d="M3.06368 9.5H0.0226017L0 9.63924C0.779722 9.82173 1.47251 10.0896 2.07417 10.4242L3.73158 16.5L5.69321 16.4972L8.61207 9.55454H6.64862L4.83352 14.2983L4.63936 13.3346C4.59193 13.1782 4.53034 13.02 4.45624 12.8619C4.49988 12.953 4.54047 13.0451 4.57799 13.1381L3.91793 10.0641C3.804 9.64058 3.47281 9.51517 3.06368 9.5Z" fill="#16216A"/>
<path d="M16.7872 9.83787C16.4204 9.70137 15.8447 9.55454 15.1266 9.55454C13.2964 9.55454 12.0066 10.4669 11.9953 11.7754C11.9853 12.7417 12.9156 13.2819 13.6187 13.6038C14.3395 13.9334 14.5825 14.1435 14.5798 14.4381C14.5744 14.8894 14.0032 15.0946 13.47 15.0946C12.7292 15.0946 12.3357 14.9926 11.7269 14.7416L11.4884 14.6352L11.2282 16.1417C11.6602 16.3294 12.4609 16.4919 13.2918 16.5C15.2394 16.5 16.5034 15.5988 16.5179 14.201C16.5247 13.4363 16.0319 12.8539 14.9629 12.373C14.3151 12.0619 13.9179 11.8544 13.922 11.5392C13.922 11.2599 14.2584 10.9604 14.9833 10.9604C15.5885 10.951 16.0283 11.0821 16.3692 11.2182L16.536 11.2958L16.7872 9.83787Z" fill="#16216A"/>
<path fill-rule="evenodd" clip-rule="evenodd" d="M21.5254 9.55454H20.1189C19.6826 9.55454 19.3564 9.67883 19.1647 10.131L16.4601 16.5H18.3733C18.3733 16.5 18.6848 15.6439 18.7565 15.4556C18.8545 15.4556 19.3165 15.4563 19.8063 15.4571L19.8094 15.4571C20.3613 15.4579 20.9476 15.4588 21.0882 15.4588C21.1426 15.7018 21.3097 16.5 21.3097 16.5H23.0001L21.5254 9.55454ZM20.0053 12.0914C20.0053 12.0914 19.4313 13.6339 19.2803 14.0346H20.7919C20.7188 13.6863 20.3699 12.0274 20.3699 12.0274L20.2464 11.4282C20.1956 11.5732 20.1235 11.7681 20.0713 11.9092C20.0297 12.0216 20.0008 12.0998 20.0053 12.0914Z" fill="#16216A"/>
<path d="M9.41633 9.55454L8.28512 16.5H10.0938L11.2281 9.55454H9.41633Z" fill="#16216A"/>
</svg>
