
<svg viewBox="0 0 382.053 491.207" xmlns="http://www.w3.org/2000/svg">
  <g transform="matrix(0.042864, 0, 0, -0.042864, -205.489746, 758.420166)" fill="#000000" stroke="none" style="">
    <path d="M5698 17666 c-278 -50 -528 -215 -687 -456 -168 -256 -197 -601 -77 -922 49 -129 91 -193 201 -303 141 -141 274 -215 482 -267 73 -19 116 -22 258 -23 147 0 180 3 248 23 339 98 611 395 694 757 25 108 22 327 -5 435 -46 186 -136 344 -275 484 -130 131 -271 215 -432 256 -104 27 -300 35 -407 16z"/>
    <path d="M4820 12798 c0 -1515 4 -2371 10 -2459 74 -947 398 -1737 1014 -2468 100 -120 359 -383 490 -501 609 -543 1291 -882 2061 -1025 444 -82 980 -97 1448 -39 461 57 932 195 1342 394 129 63 378 200 399 221 6 5 -7 26 -30 51 -62 68 -122 161 -179 282 -129 268 -195 575 -225 1044 -11 169 -15 1026 -5 1043 4 5 3 9 -2 9 -4 0 -21 -19 -38 -43 -43 -60 -194 -234 -251 -288 -328 -310 -723 -516 -1146 -598 -302 -58 -676 -54 -975 10 -401 86 -794 301 -1102 602 -376 367 -609 830 -676 1342 -18 137 -21 468 -6 585 13 97 14 488 1 855 -28 807 -96 1422 -206 1872 -45 188 -93 324 -159 458 -203 411 -654 729 -1258 885 -149 38 -320 71 -444 85 l-63 7 0 -2324z"/>
    <path d="M8990 15114 c-699 -41 -1349 -228 -1925 -555 -177 -100 -167 -87 -113 -150 210 -248 342 -630 393 -1142 24 -240 38 -667 30 -947 -4 -162 -3 -251 3 -245 5 6 45 53 88 105 379 460 926 755 1516 819 217 24 569 8 761 -35 341 -76 609 -198 892 -410 451 -335 775 -845 878 -1379 43 -218 48 -320 41 -752 -18 -1083 65 -2156 211 -2751 101 -406 199 -596 425 -822 231 -232 516 -392 899 -505 212 -62 287 -75 446 -75 l146 0 -4 2363 c-3 1661 -8 2393 -16 2467 -63 589 -181 1028 -400 1485 -221 461 -514 859 -937 1275 -754 740 -1608 1142 -2634 1240 -118 11 -585 21 -700 14z"/>
  </g>
</svg>