
<svg viewBox="-766.791 -2.517 1771.248 295.65" xmlns="http://www.w3.org/2000/svg">
  <g transform="matrix(0.1, 0, 0, -0.1, -800.283203, 447.009155)" fill="#000000" stroke="none">
    <path d="M4525 4473 c-164 -22 -305 -115 -372 -246 -51 -103 -65 -184 -70 -424 l-5 -223 -44 0 c-105 0 -133 -45 -134 -215 0 -182 23 -225 122 -225 l58 0 0 -730 c0 -826 -5 -775 77 -807 40 -15 77 -18 213 -18 151 0 168 2 207 22 23 13 45 28 50 35 4 7 10 346 13 753 l5 740 121 5 c134 6 146 10 166 68 20 57 16 269 -5 309 -30 56 -49 63 -174 63 l-113 0 0 163 c0 89 5 179 10 199 23 81 73 103 192 86 64 -10 71 -9 90 9 31 31 69 150 75 233 5 71 4 77 -22 108 -37 45 -94 72 -184 88 -71 12 -208 16 -276 7z"/>
    <path d="M14200 4439 c-63 -18 -70 -35 -70 -183 0 -150 7 -169 68 -186 48 -13 166 -13 214 0 61 17 68 36 68 185 0 151 -6 167 -74 184 -53 13 -157 13 -206 0z"/>
    <path d="M465 4255 c-32 -8 -59 -24 -77 -44 l-28 -31 0 -1256 0 -1256 33 -33 c42 -42 103 -55 262 -55 159 0 220 13 262 55 l33 33 0 1257 0 1257 -33 33 c-22 22 -48 36 -85 44 -72 15 -305 13 -367 -4z"/>
    <path d="M8667 4258 c-21 -5 -44 -20 -52 -32 -26 -41 -926 -2561 -923 -2586 5 -40 48 -55 165 -55 152 0 136 -21 268 361 l111 319 563 0 564 0 115 -323 c136 -382 116 -357 282 -357 109 0 152 13 167 51 3 8 -203 595 -458 1305 -443 1236 -464 1291 -493 1307 -38 19 -251 27 -309 10z m153 -377 c0 -60 55 -234 243 -766 l193 -550 -449 -3 c-248 -1 -452 0 -455 3 -2 2 87 264 198 582 180 510 216 620 244 736 8 36 26 35 26 -2z"/>
    <path d="M17339 4045 c-15 -8 -29 -21 -32 -30 -4 -8 -16 -99 -27 -202 -12 -104 -23 -198 -26 -210 -4 -22 -9 -23 -110 -23 -98 0 -107 -2 -129 -25 -23 -22 -25 -32 -25 -112 0 -131 3 -133 145 -133 l114 0 3 -677 c4 -742 2 -712 65 -836 74 -147 228 -227 438 -227 181 0 275 47 260 129 -13 74 -26 111 -48 136 -21 25 -25 26 -67 16 -64 -15 -175 -13 -213 3 -18 7 -45 28 -60 45 -56 67 -57 76 -57 773 l0 638 175 0 c219 0 215 -3 215 130 0 83 -2 93 -25 115 -24 25 -27 25 -195 25 l-170 0 0 203 c0 111 -3 212 -6 225 -4 12 -19 29 -35 37 -36 19 -155 19 -190 0z"/>
    <path d="M2635 3596 c-146 -34 -257 -96 -367 -204 -46 -45 -69 -61 -72 -51 -2 8 -10 39 -17 69 -18 85 -45 129 -87 147 -31 13 -52 13 -147 4 -188 -20 -306 -57 -320 -102 -3 -10 1 -57 9 -106 30 -170 36 -333 36 -1006 0 -447 4 -685 10 -698 6 -10 30 -29 53 -41 39 -21 55 -23 207 -23 136 0 173 3 213 18 81 32 77 -6 77 700 l0 623 29 45 c73 113 171 173 283 172 91 0 154 -31 188 -93 l25 -45 5 -670 c4 -507 8 -675 17 -692 26 -44 93 -58 273 -58 152 0 168 2 207 23 23 12 47 31 53 41 7 13 10 262 10 734 0 799 -2 832 -65 964 -58 123 -145 195 -285 238 -76 22 -259 29 -335 11z"/>
    <path d="M6162 3599 c-174 -22 -320 -80 -440 -173 -241 -189 -359 -579 -311 -1028 26 -244 106 -440 234 -576 157 -167 342 -244 620 -259 335 -18 625 93 780 299 146 192 217 479 201 806 -26 561 -282 873 -766 932 -96 11 -226 11 -318 -1z m298 -461 c93 -39 153 -123 192 -266 18 -66 21 -105 22 -277 0 -217 -11 -299 -57 -399 -66 -144 -197 -213 -352 -185 -210 37 -305 241 -292 624 10 275 65 416 191 490 79 46 206 52 296 13z"/>
    <path d="M10891 3598 c-236 -33 -413 -171 -483 -376 -19 -56 -22 -87 -22 -182 2 -176 39 -267 149 -369 75 -67 177 -119 374 -185 232 -79 297 -117 349 -204 25 -43 27 -56 27 -147 0 -90 -3 -105 -28 -153 -31 -60 -84 -103 -160 -129 -41 -14 -81 -18 -187 -17 -119 0 -144 4 -209 27 -41 14 -110 47 -153 72 -50 29 -86 44 -98 40 -37 -12 -110 -132 -110 -183 0 -65 149 -159 318 -202 105 -26 264 -39 369 -29 219 22 414 141 513 314 107 187 88 493 -41 640 -73 83 -239 168 -470 241 -230 72 -319 164 -319 331 0 76 16 117 61 160 118 112 359 124 554 28 69 -34 70 -34 95 -16 31 22 78 112 87 164 5 31 1 42 -18 64 -79 85 -383 142 -598 111z"/>
    <path d="M12691 3598 c-236 -33 -413 -171 -483 -376 -19 -56 -22 -87 -22 -182 2 -176 39 -267 149 -369 75 -67 177 -119 374 -185 232 -79 297 -117 349 -204 25 -43 27 -56 27 -147 0 -90 -3 -105 -28 -153 -31 -60 -84 -103 -160 -129 -41 -14 -81 -18 -187 -17 -119 0 -144 4 -209 27 -41 14 -110 47 -153 72 -50 29 -86 44 -98 40 -37 -12 -110 -132 -110 -183 0 -65 149 -159 318 -202 105 -26 264 -39 369 -29 219 22 414 141 513 314 107 187 88 493 -41 640 -73 83 -239 168 -470 241 -230 72 -319 164 -319 331 0 76 16 117 61 160 118 112 359 124 554 28 69 -34 70 -34 95 -16 31 22 78 112 87 164 5 31 1 42 -18 64 -79 85 -383 142 -598 111z"/>
    <path d="M15731 3598 c-236 -33 -413 -171 -483 -376 -19 -56 -22 -87 -22 -182 2 -176 39 -267 149 -369 75 -67 177 -119 374 -185 232 -79 297 -117 349 -204 25 -43 27 -56 27 -147 0 -90 -3 -105 -28 -153 -31 -60 -84 -103 -160 -129 -41 -14 -81 -18 -187 -17 -119 0 -144 4 -209 27 -41 14 -110 47 -153 72 -50 29 -86 44 -98 40 -37 -12 -110 -132 -110 -183 0 -65 149 -159 318 -202 105 -26 264 -39 369 -29 219 22 414 141 513 314 107 187 88 493 -41 640 -73 83 -239 168 -470 241 -230 72 -319 164 -319 331 0 76 16 117 61 160 118 112 359 124 554 28 69 -34 70 -34 95 -16 31 22 78 112 87 164 5 31 1 42 -18 64 -79 85 -383 142 -598 111z"/>
    <path d="M14255 3586 c-5 -2 -22 -7 -38 -10 -15 -4 -36 -15 -47 -26 -20 -20 -20 -37 -20 -961 0 -583 4 -947 10 -958 15 -29 70 -46 150 -46 80 0 135 17 150 46 11 20 14 1876 4 1904 -10 26 -62 46 -132 51 -37 2 -71 2 -77 0z"/>
  </g>
</svg>