<svg id="Capa_1" enable-background="new 0 0 510.194 510.194" height="512" viewBox="0 0 510.194 510.194" width="512" xmlns="http://www.w3.org/2000/svg"><g><path d="m494.507 282.799c-4.979-5.874-11.946-9.458-19.62-10.092-7.671-.634-15.135 1.759-21.009 6.737l-3.863 3.274c-.929-4.785-3.065-9.278-6.303-13.099-10.277-12.125-28.502-13.63-40.629-3.354l-3.44 2.915c-.963-4.54-3.035-8.91-6.242-12.695-10.277-12.126-28.505-13.631-40.629-3.354l-57.647 48.854c-2.96-.838-6.078-1.296-9.303-1.296h-103.575c-23.256 0-45.938 6.571-65.593 19.001-19.655 12.431-35.312 30.107-45.28 51.12l-3.527 7.437-57.375 72.424c-2.572 3.247-2.025 7.964 1.222 10.536 1.378 1.092 3.021 1.622 4.652 1.622 2.212 0 4.403-.975 5.884-2.843l57.906-73.095c.353-.445.654-.93.897-1.443l3.894-8.209c17.736-37.39 55.937-61.55 97.32-61.55h103.576c10.589 0 19.204 8.615 19.204 19.205 0 5.211-2.052 10.088-5.777 13.732-3.618 3.539-8.364 5.473-13.406 5.473-.146 0-67.454-.007-67.454-.007-4.142 0-7.5 3.358-7.5 7.5s3.358 7.5 7.5 7.5h66.77c9.248.169 17.968-3.275 24.579-9.742.945-.924 1.822-1.898 2.645-2.907h63.372c6.75 0 13.303-2.403 18.451-6.767l69.369-58.789c2.818-2.388 6.407-3.539 10.077-3.231 3.681.304 7.023 2.023 9.411 4.841 2.388 2.817 3.536 6.396 3.232 10.077-.305 3.681-2.023 7.023-4.841 9.411l-109.506 92.805c-10.22 8.661-22.652 14.084-35.953 15.685l-19.766 2.378c-4.113.495-7.046 4.229-6.551 8.342.458 3.809 3.694 6.605 7.437 6.605.299 0 .602-.018.905-.055l19.766-2.378c16.226-1.952 31.393-8.568 43.859-19.134l109.506-92.804c5.875-4.978 9.459-11.946 10.092-19.62.634-7.674-1.759-15.135-6.737-21.01zm-132.037-18.223c5.814-4.928 14.56-4.208 19.489 1.609 4.543 5.362 4.366 13.167-.367 18.294l-61.612 52.216c.031-.597.048-1.197.048-1.799 0-9.892-4.225-18.811-10.96-25.062zm-24.894 76.868 75.204-63.734c5.817-4.929 14.56-4.207 19.488 1.608 2.388 2.818 3.536 6.397 3.232 10.078-.305 3.681-2.023 7.023-4.841 9.411l-46.152 39.427c-2.442 2.07-5.551 3.21-8.753 3.21z"/><path d="m284.267 426.697-70.552 8.487c-1.897.228-3.636 1.172-4.86 2.638l-50.172 60.064c-2.656 3.179-2.231 7.909.948 10.564 1.403 1.172 3.108 1.744 4.804 1.744 2.146 0 4.277-.916 5.76-2.692l48.266-57.782 67.598-8.131c4.112-.495 7.046-4.229 6.551-8.342-.496-4.112-4.24-7.045-8.343-6.55z"/><path d="m133.816 228.166h17.949l11.504 25.842c2.333 5.242 7.348 8.498 13.085 8.498 5.738 0 10.751-3.256 13.084-8.498l11.504-25.842h38.417c4.142 0 7.5-3.358 7.5-7.5s-3.358-7.5-7.5-7.5h-43.288c-2.962 0-5.647 1.744-6.852 4.45l-12.866 28.901-12.866-28.901c-1.205-2.706-3.889-4.45-6.852-4.45h-22.82c-25.719 0-46.643-20.924-46.643-46.643v-104.88c.002-25.719 20.926-46.643 46.644-46.643h168.433c25.719 0 46.643 20.924 46.643 46.643v104.88c0 25.719-20.924 46.643-46.643 46.643h-30.927c-4.143 0-7.5 3.358-7.5 7.5s3.357 7.5 7.5 7.5h30.927c33.99 0 61.643-27.653 61.643-61.643v-104.88c-.001-33.99-27.653-61.643-61.643-61.643h-168.433c-33.99 0-61.643 27.653-61.643 61.643v104.88c.001 33.99 27.654 61.643 61.643 61.643z"/><path d="m171.068 71.547c-3.39-2.381-8.067-1.562-10.448 1.828-8.318 11.845-12.715 25.763-12.715 40.25 0 38.668 31.459 70.127 70.128 70.127s70.128-31.459 70.128-70.127c0-10.849-2.478-21.13-6.895-30.309l24.011-22.947c2.995-2.862 3.103-7.609.24-10.604s-7.61-3.103-10.604-.241l-21.773 20.807c-12.851-16.323-32.769-26.835-55.108-26.835-10.507 0-20.624 2.276-30.068 6.765-3.741 1.778-5.333 6.252-3.555 9.993s6.252 5.333 9.993 3.555c7.417-3.525 15.367-5.312 23.629-5.312 18.083 0 34.158 8.753 44.217 22.243l-46.792 44.718-9.429-9.429c-2.929-2.929-7.678-2.929-10.606 0-2.929 2.929-2.929 7.678 0 10.606l14.613 14.613c1.463 1.463 3.382 2.197 5.304 2.197 1.864 0 3.73-.691 5.181-2.078l49.167-46.987c2.241 5.995 3.473 12.478 3.473 19.244 0 30.397-24.73 55.127-55.128 55.127s-55.128-24.73-55.128-55.127c0-11.385 3.455-22.322 9.99-31.629 2.383-3.39 1.565-8.068-1.825-10.448z"/></g></svg>