<svg id="Capa_1" enable-background="new 0 0 512 512" height="512" viewBox="0 0 512 512" width="512" xmlns="http://www.w3.org/2000/svg"><g><g><path d="m440.835 259.77h-238.597c-5.937 0-10.767 4.83-10.767 10.767v136.681c0 5.937 4.83 10.766 10.767 10.766h238.597c5.937 0 10.767-4.83 10.767-10.766v-30.218c0-4.142-3.357-7.5-7.5-7.5s-7.5 3.358-7.5 7.5v25.983h-230.13v-128.213h230.13v67.23c0 4.142 3.357 7.5 7.5 7.5s7.5-3.358 7.5-7.5v-71.464c0-5.936-4.831-10.766-10.767-10.766z"/><circle cx="224.5" cy="290.345" r="7.5"/><circle cx="246.5" cy="290.345" r="7.5"/><circle cx="268.5" cy="290.345" r="7.5"/><path d="m499.056 430.203h-20.236v-179.265c0-10.139-8.249-18.388-18.388-18.388h-115.532v-78.55c0-4.142-3.357-7.5-7.5-7.5s-7.5 3.358-7.5 7.5v78.55h-147.26c-9.754 0-17.737 7.64-18.33 17.248h-149.31v-164.527c0-1.868 1.52-3.388 3.388-3.388h160.417v119.462h-12.708v-73.813c0-5.79-4.71-10.5-10.5-10.5h-27.994c-5.79 0-10.5 4.71-10.5 10.5v73.813h-12.708v-35.338c0-5.79-4.71-10.5-10.5-10.5h-27.995c-5.79 0-10.5 4.71-10.5 10.5v35.338h-13.4c-4.142 0-7.5 3.358-7.5 7.5s3.358 7.5 7.5 7.5h237c5.79 0 10.5-4.71 10.5-10.5v-93.868c0-5.79-4.71-10.5-10.5-10.5h-27.994c-5.79 0-10.5 4.71-10.5 10.5v89.368h-12.708v-119.462h98.715c1.868 0 3.388 1.52 3.388 3.388v33.729c0 4.142 3.357 7.5 7.5 7.5s7.5-3.358 7.5-7.5v-33.729c0-10.139-8.249-18.388-18.388-18.388h-98.715v-24.588c0-5.79-4.71-10.5-10.5-10.5h-27.994c-5.79 0-10.5 4.71-10.5 10.5v24.588h-160.416c-10.139 0-18.388 8.249-18.388 18.388v202.513c0 10.139 8.249 18.388 18.388 18.388h50.612c4.142 0 7.5-3.358 7.5-7.5s-3.358-7.5-7.5-7.5h-50.612c-1.868 0-3.388-1.52-3.388-3.388v-22.986h149.252v26.374h-60.252c-4.142 0-7.5 3.358-7.5 7.5s3.358 7.5 7.5 7.5h17.943v44.883h-40.406c-13.141 0-23.832 10.691-23.832 23.832v13.065c0 7.137 5.807 12.944 12.944 12.944h93.603v29.307h-20.235c-7.137 0-12.944 5.807-12.944 12.944v24.113c0 7.138 5.807 12.944 12.944 12.944h355.039c7.138 0 12.944-5.807 12.944-12.944v-24.113c0-7.137-5.807-12.944-12.944-12.944zm-409.661-228.858h-18.995v-30.838h18.994v30.838zm61.701 0h-18.994v-69.313h18.994zm104.41-84.867h18.994v84.868h-18.994zm-61.702-69.683h18.994v154.55h-18.994zm-14.552 204.143c0-1.868 1.52-3.388 3.388-3.388h277.792c1.868 0 3.388 1.52 3.388 3.388v179.265h-284.568zm-42.309 55.234h27.309v44.883h-27.309zm-64.237 79.724v-11.009c0-4.87 3.962-8.832 8.832-8.832h82.715v19.841zm73.367 79.309v-20.001h124.88l7.254 20.001zm203.111 0h-55.021l-7.254-20.001h69.346zm147.816 0h-131.906l7.071-20.001h124.835z"/><path d="m407.445 376.087c11.698 0 21.215-9.517 21.215-21.215s-9.517-21.215-21.215-21.215c-2.988 0-5.829.628-8.41 1.747l-14.246-14.714c1.295-2.742 2.042-5.792 2.042-9.02 0-11.698-9.517-21.215-21.215-21.215s-21.215 9.517-21.215 21.215c0 2.145.326 4.215.921 6.168l-52.249 40.257c-3.238-2.003-7.038-3.181-11.117-3.181-3.232 0-6.286.748-9.031 2.046l-17.872-17.286c1.145-2.605 1.791-5.477 1.791-8.5 0-11.698-9.517-21.215-21.215-21.215s-21.215 9.517-21.215 21.215 9.517 21.215 21.215 21.215c3.192 0 6.21-.729 8.929-1.997l17.926 17.338c-1.117 2.578-1.742 5.416-1.742 8.4 0 11.698 9.517 21.215 21.215 21.215s21.215-9.517 21.215-21.215c0-2.145-.326-4.215-.921-6.169l52.249-40.257c3.238 2.003 7.038 3.181 11.118 3.181 2.988 0 5.829-.628 8.41-1.747l14.247 14.714c-1.295 2.742-2.042 5.792-2.042 9.02-.003 11.698 9.514 21.215 21.212 21.215zm0-27.429c3.427 0 6.215 2.788 6.215 6.215s-2.788 6.215-6.215 6.215-6.215-2.788-6.215-6.215 2.789-6.215 6.215-6.215zm-171.817-11.268c-3.427 0-6.215-2.788-6.215-6.215s2.788-6.215 6.215-6.215 6.215 2.788 6.215 6.215-2.788 6.215-6.215 6.215zm46.327 44.955c-3.427 0-6.215-2.788-6.215-6.215s2.788-6.215 6.215-6.215 6.215 2.788 6.215 6.215-2.788 6.215-6.215 6.215zm83.66-64.459c-3.427 0-6.215-2.788-6.215-6.215s2.788-6.215 6.215-6.215 6.215 2.788 6.215 6.215-2.788 6.215-6.215 6.215z"/><path d="m44 112.345h37c4.142 0 7.5-3.358 7.5-7.5s-3.358-7.5-7.5-7.5h-37c-4.142 0-7.5 3.358-7.5 7.5s3.358 7.5 7.5 7.5z"/><path d="m44 135.345h37c4.142 0 7.5-3.358 7.5-7.5s-3.358-7.5-7.5-7.5h-37c-4.142 0-7.5 3.358-7.5 7.5s3.358 7.5 7.5 7.5z"/></g></g></svg>