<svg id="Capa_1" enable-background="new 0 0 514.472 514.472" height="512" viewBox="0 0 514.472 514.472" width="512" xmlns="http://www.w3.org/2000/svg"><g><path d="m26.824 357.451c4.142 0 7.5-3.357 7.5-7.5v-332.061c0-1.594 1.297-2.89 2.891-2.89h274.533v75.545c0 9.865 8.026 17.891 17.891 17.891h75.149v46.125c0 4.143 3.358 7.5 7.5 7.5s7.5-3.357 7.5-7.5v-53.823c0-1.989-.79-3.896-2.197-5.304l-93.238-93.238c-1.406-1.406-3.314-2.196-5.303-2.196h-281.835c-9.865 0-17.891 8.025-17.891 17.89v332.062c0 4.142 3.358 7.499 7.5 7.499zm299.924-266.906v-64.741l67.631 67.631h-64.741c-1.593.001-2.89-1.296-2.89-2.89z"/><path d="m412.287 437.547c-4.142 0-7.5 3.357-7.5 7.5v51.534c0 1.594-1.296 2.891-2.89 2.891h-364.682c-1.594 0-2.891-1.297-2.891-2.891v-114.668c0-4.143-3.358-7.5-7.5-7.5s-7.5 3.357-7.5 7.5v114.668c0 9.865 8.026 17.891 17.891 17.891h364.683c9.865 0 17.89-8.025 17.89-17.891v-51.534c-.001-4.143-3.359-7.5-7.501-7.5z"/><path d="m495.148 270.375c0-51.741-42.095-93.836-93.836-93.836s-93.836 42.095-93.836 93.836c0 32.478 16.588 61.152 41.734 78.003v68.543c0 4.729 2.357 9.105 6.304 11.709 3.948 2.604 8.9 3.046 13.246 1.184l32.552-13.949 32.553 13.949c1.778.763 3.658 1.139 5.529 1.139 2.701 0 5.384-.784 7.716-2.322 3.947-2.604 6.304-6.98 6.304-11.709v-68.543c25.146-16.852 41.734-45.526 41.734-78.004zm-56.734 145.069-31.578-13.532c-3.511-1.505-7.538-1.505-11.048 0l-31.578 13.532v-58.887c11.386 4.921 23.93 7.654 37.102 7.654s25.716-2.733 37.102-7.654zm-37.102-66.233c-43.47 0-78.836-35.365-78.836-78.836s35.366-78.836 78.836-78.836 78.836 35.365 78.836 78.836-35.366 78.836-78.836 78.836z"/><path d="m457.935 240.945c-1.916-3.672-6.444-5.097-10.119-3.181-3.672 1.915-5.097 6.445-3.181 10.118 3.658 7.013 5.513 14.58 5.513 22.492 0 26.929-21.908 48.836-48.836 48.836s-48.836-21.907-48.836-48.836 21.908-48.836 48.836-48.836c8.397 0 16.696 2.19 24 6.334 3.601 2.043 8.18.78 10.224-2.822 2.044-3.603.78-8.181-2.823-10.225-9.556-5.422-20.415-8.287-31.401-8.287-35.199 0-63.836 28.637-63.836 63.836s28.637 63.836 63.836 63.836 63.836-28.637 63.836-63.836c0-10.205-2.494-20.382-7.213-29.429z"/><path d="m430.15 254.67-13.955-2.027-6.24-12.645c-1.636-3.314-4.948-5.373-8.644-5.373s-7.008 2.059-8.644 5.373l-6.24 12.645-13.954 2.027c-3.658.531-6.64 3.045-7.782 6.561-1.142 3.515-.207 7.301 2.439 9.88l10.098 9.844-2.384 13.899c-.624 3.643.846 7.255 3.836 9.427 1.689 1.227 3.666 1.85 5.655 1.85 1.532 0 3.072-.369 4.494-1.117l12.481-6.562 12.48 6.562c3.271 1.719 7.162 1.438 10.151-.733 2.99-2.172 4.46-5.785 3.835-9.428l-2.384-13.897 10.097-9.843c2.646-2.58 3.582-6.366 2.439-9.881-1.139-3.517-4.12-6.031-7.778-6.562zm-17.244 17.511c-2.271 2.214-3.308 5.401-2.772 8.53l1.024 5.97-5.364-2.82c-1.403-.736-2.942-1.104-4.481-1.104-1.54 0-3.081.369-4.486 1.106l-5.361 2.818 1.023-5.967c.538-3.128-.499-6.318-2.771-8.533l-4.337-4.229 5.998-.871c3.138-.458 5.849-2.429 7.253-5.272l2.68-5.431 2.681 5.432c1.404 2.844 4.115 4.813 7.257 5.271l5.993.871z"/><path d="m334.806 162.586v-25.365c0-4.143-3.358-7.5-7.5-7.5s-7.5 3.357-7.5 7.5v17.865h-164.745c-4.142 0-7.5 3.357-7.5 7.5s3.358 7.5 7.5 7.5h172.246c4.141 0 7.499-3.357 7.499-7.5z"/><path d="m85.942 87.488h182.18c4.142 0 7.5-3.357 7.5-7.5s-3.358-7.5-7.5-7.5h-182.18c-9.831 0-17.83 7.999-17.83 17.83v61.938c0 9.831 7.999 17.83 17.83 17.83h37.064c4.142 0 7.5-3.357 7.5-7.5s-3.358-7.5-7.5-7.5h-37.064c-1.56 0-2.83-1.27-2.83-2.83v-61.938c.001-1.56 1.27-2.83 2.83-2.83z"/><path d="m75.613 233.822h197.062c4.142 0 7.5-3.357 7.5-7.5s-3.358-7.5-7.5-7.5h-197.062c-4.142 0-7.5 3.357-7.5 7.5s3.357 7.5 7.5 7.5z"/><path d="m75.613 283.9h197.062c4.142 0 7.5-3.357 7.5-7.5s-3.358-7.5-7.5-7.5h-197.062c-4.142 0-7.5 3.357-7.5 7.5s3.357 7.5 7.5 7.5z"/><path d="m291.536 318.979h-215.923c-4.142 0-7.5 3.357-7.5 7.5s3.358 7.5 7.5 7.5h215.923c4.142 0 7.5-3.357 7.5-7.5s-3.358-7.5-7.5-7.5z"/><path d="m314.976 369.058h-239.363c-4.142 0-7.5 3.357-7.5 7.5s3.358 7.5 7.5 7.5h239.363c4.142 0 7.5-3.357 7.5-7.5s-3.358-7.5-7.5-7.5z"/><path d="m68.113 426.637c0 4.143 3.358 7.5 7.5 7.5h251.694c4.142 0 7.5-3.357 7.5-7.5s-3.358-7.5-7.5-7.5h-251.694c-4.143 0-7.5 3.357-7.5 7.5z"/></g></svg>