<svg id="Capa_1" enable-background="new 0 0 514.972 514.972" height="512" viewBox="0 0 514.972 514.972" width="512" xmlns="http://www.w3.org/2000/svg"><g><path d="m406.276 323.659h.499c13.866 0 25.147-11.281 25.147-25.147 0-5.87-2.028-11.273-5.412-15.557l5.113-36.352c3.725-26.476-14.759-51.214-41.205-55.146l-.877-.13c-8.446-13.713-21.488-23.609-37.129-28.043l-1.88-.533c-31.396-8.905-65.356 4.239-82.582 31.958-16.182 26.04-19.187 58.351-8.198 86.89-4.07 4.47-6.555 10.407-6.555 16.914 0 13.866 11.281 25.147 25.147 25.147h.499c2.856 16.986 12.354 31.738 25.73 41.492v14.155c-1.389.536-2.705 1.298-3.88 2.295l-12.723 10.798c-3.25 2.758-4.868 6.76-4.738 10.751l-31.172 21.438c-17.106 11.765-27.319 31.184-27.319 51.945v30.938c0 4.142 3.358 7.5 7.5 7.5s7.5-3.358 7.5-7.5v-30.938c0-15.821 7.783-30.62 20.819-39.585l29.651-20.392 12.072 16.141c2.696 3.604 6.923 5.636 11.282 5.636 1.133 0 2.274-.146 3.4-.428l2.908 11.373c.534 2.089 1.551 3.947 2.903 5.486l-7.303 51.658c-.58 4.101 2.275 7.896 6.376 8.476.356.05.709.075 1.059.075 3.677 0 6.887-2.706 7.417-6.451l6.96-49.227h10.55l6.96 49.227c.53 3.746 3.74 6.451 7.417 6.451.349 0 .703-.024 1.059-.075 4.102-.58 6.956-4.375 6.376-8.476l-7.304-51.657c1.352-1.538 2.37-3.397 2.903-5.485l2.908-11.373c1.126.282 2.267.428 3.4.428 4.359 0 8.587-2.032 11.282-5.636l12.073-16.142 13.752 9.458c1.298.893 2.778 1.321 4.243 1.321 2.386 0 4.732-1.136 6.187-3.25 2.347-3.413 1.483-8.083-1.93-10.43l-15.274-10.504c.129-3.991-1.488-7.993-4.738-10.751l-12.725-10.798c-1.176-.998-2.492-1.76-3.88-2.295v-14.155c13.378-9.757 22.876-24.509 25.732-41.495zm.91-15.021v-20.253c5.404.218 9.736 4.67 9.736 10.127s-4.332 9.908-9.736 10.126zm9.584-64.125-4.156 29.543c-1.747-.417-3.563-.651-5.428-.681v-.269c0-11.594-3.57-22.749-10.039-32.082 2.745-10.672 2.699-21.648-.054-32.111 13.381 6.03 21.816 20.395 19.677 35.6zm-136.078-41.889c13.714-22.069 40.751-32.532 65.749-25.444l1.88.533c12.979 3.68 23.633 12.257 30 24.15 4.276 7.988 6.224 16.755 5.797 25.543l-4.381-3.766c-4.567-3.925-11.279-4.027-15.962-.244l-6.296 5.085h-36.334c-23.826 0-43.21 19.384-43.21 43.21v1.683c-1.718.028-3.394.228-5.012.585-8.31-23.605-5.512-49.963 7.769-71.335zm-12.493 95.887c0-5.456 4.332-9.908 9.736-10.127v20.253c-5.404-.217-9.736-4.669-9.736-10.126zm24.736 14.402v-41.222c0-15.555 12.655-28.21 28.21-28.21h38.984c1.715 0 3.378-.588 4.712-1.666l6.717-5.425 6.23 5.355c9.149 7.865 14.396 19.294 14.396 31.359v39.808c0 27.364-22.262 49.625-49.625 49.625s-49.624-22.26-49.624-49.624zm5.813 90.014 10.905-9.254 25.408 12.458v10.616l-21.16 6.439zm55.037 30.632-2.745 10.735h-16.958l-2.745-10.735 11.224-3.416zm32.588-30.632-15.152 20.259-21.16-6.439v-10.616l25.407-12.458zm-20.827-21.095-22.985 11.27-22.985-11.27v-8.532c7.147 2.73 14.891 4.239 22.985 4.239s15.838-1.509 22.985-4.239z"/><path d="m443.932 434.093c-2.79-3.063-7.533-3.283-10.595-.495-3.062 2.79-3.284 7.533-.495 10.595 8.086 8.877 12.539 20.363 12.539 32.34v30.938c0 4.142 3.358 7.5 7.5 7.5s7.5-3.358 7.5-7.5v-30.938c0-15.722-5.842-30.794-16.449-42.44z"/><path d="m273.067 469.194c-4.142 0-7.5 3.358-7.5 7.5v30.156c0 4.142 3.358 7.5 7.5 7.5s7.5-3.358 7.5-7.5v-30.156c0-4.142-3.358-7.5-7.5-7.5z"/><path d="m412.055 469.194c-4.142 0-7.5 3.358-7.5 7.5v30.156c0 4.142 3.358 7.5 7.5 7.5s7.5-3.358 7.5-7.5v-30.156c0-4.142-3.358-7.5-7.5-7.5z"/><path d="m69.591 320.435c0-10.125 3.145-19.837 9.093-28.088 2.423-3.36 1.663-8.047-1.697-10.47-3.361-2.424-8.048-1.663-10.47 1.697-7.802 10.822-11.926 23.568-11.926 36.861v30.938c0 4.142 3.358 7.5 7.5 7.5s7.5-3.358 7.5-7.5z"/><path d="m233.285 266.32c1.298.893 2.778 1.321 4.243 1.321 2.386 0 4.732-1.136 6.187-3.25 2.347-3.413 1.483-8.083-1.93-10.43l-10.045-6.909c.129-3.991-1.488-7.992-4.738-10.75l-12.725-10.798c-1.176-.998-2.492-1.76-3.88-2.295v-14.155c13.377-9.754 22.875-24.506 25.73-41.492h.499c13.866 0 25.147-11.281 25.147-25.147 0-7.088-2.952-13.496-7.686-18.071l2.584-5.047c4.947-9.662 5.977-20.716 2.901-31.126l-.349-1.182 2.501-11.007c3.367-14.814-1.536-30.352-12.796-40.55l-3.556-3.22c-7.434-15.026-22.852-24.144-39.705-23.354l-3.357.158-14.99-5.992c-10.079-4.028-21.182-4.028-31.263 0l-14.99 5.992-3.357-.158c-16.877-.798-32.272 8.329-39.705 23.354l-3.555 3.22c-11.26 10.198-16.164 25.735-12.797 40.55l2.501 11.007-.35 1.183c-3.075 10.41-2.045 21.464 2.902 31.126l3.078 6.013c-4.176 4.491-6.737 10.504-6.737 17.105 0 13.866 11.281 25.147 25.147 25.147h.499c2.856 16.986 12.354 31.738 25.73 41.492v14.155c-1.389.536-2.705 1.298-3.88 2.295l-12.725 10.799c-3.25 2.758-4.867 6.759-4.738 10.75l-20.299 13.96c-3.413 2.347-4.277 7.017-1.93 10.43 1.455 2.115 3.8 3.25 6.187 3.25 1.465 0 2.945-.428 4.243-1.321l18.777-12.913 12.073 16.142c2.696 3.604 6.923 5.635 11.283 5.635 1.358 0 2.729-.197 4.071-.605l17.424-5.303v74.424c0 4.142 3.358 7.5 7.5 7.5s7.5-3.358 7.5-7.5v-74.424l17.425 5.303c1.341.408 2.712.605 4.07.605 4.359 0 8.587-2.031 11.283-5.636l12.073-16.142zm3.751-113.78v-20.253c5.404.218 9.736 4.67 9.736 10.127s-4.332 9.908-9.736 10.126zm-138.987-10.127c0-5.456 4.332-9.908 9.736-10.127v20.253c-5.404-.217-9.736-4.669-9.736-10.126zm15.319-51.76c-3.548 2.865-5.583 7.124-5.583 11.685v14.939c-1.701.028-3.362.224-4.966.574l-2.76-5.392c-3.185-6.221-3.848-13.338-1.868-20.04l.904-3.06c.364-1.231.406-2.536.121-3.788l-2.936-12.917c-2.168-9.538.989-19.542 8.24-26.108l4.664-4.224c.769-.696 1.384-1.544 1.809-2.491 4.591-10.242 14.786-16.519 26.015-15.994l4.982.234c1.069.048 2.14-.13 3.135-.527l16.5-6.595c6.49-2.595 13.638-2.595 20.128 0l16.5 6.595c.996.397 2.067.575 3.135.527l4.982-.234c11.21-.528 21.423 5.751 26.015 15.994.424.947 1.041 1.795 1.809 2.491l4.664 4.224c7.25 6.565 10.407 16.569 8.239 26.107l-2.936 12.917c-.285 1.252-.243 2.556.121 3.788l.904 3.06c1.98 6.702 1.317 13.819-1.868 20.04l-2.631 5.14c-1.191-.194-2.41-.302-3.651-.323v-13.524c0-4.518-2.004-8.751-5.498-11.615-3.495-2.864-8.04-3.999-12.468-3.111l-2.368.474c-5.63 1.128-11.4.045-16.241-3.049-5.08-3.248-11.459-3.359-16.652-.289l-1.775 1.05c-5.937 3.512-13.312 3.511-19.248 0l-2.29-1.354c-4.659-2.756-10.332-2.961-15.175-.549l-2.203 1.097c-4.47 2.226-9.623 2.873-14.503 1.821l-2.65-.57c-4.453-.959-9.049.131-12.597 2.997zm9.417 66.162.022-54.495 2.65.571c8.196 1.766 16.843.68 24.347-3.057l2.203-1.097c.272-.135.589-.124.852.032l2.291 1.354c10.647 6.298 23.875 6.297 34.521 0l1.774-1.05c.291-.172.651-.167.936.016 8.126 5.194 17.808 7.011 27.265 5.119l2.389-.477s.001.006.001.02v53.063c0 27.364-22.262 49.625-49.625 49.625s-49.626-22.26-49.626-49.624zm49.626 64.626c8.094 0 15.838-1.509 22.985-4.239v8.532l-22.985 11.27-22.985-11.27v-8.532c7.146 2.729 14.891 4.239 22.985 4.239zm-28.661 45.647-15.152-20.259 10.905-9.254 25.408 12.458v10.616zm57.321 0-21.16-6.439v-10.616l25.407-12.458 10.905 9.254z"/><path d="m110.417 350.752v-30.156c0-4.142-3.358-7.5-7.5-7.5s-7.5 3.358-7.5 7.5v30.156c0 4.142 3.358 7.5 7.5 7.5s7.5-3.358 7.5-7.5z"/><path d="m234.404 320.596v30.156c0 4.142 3.358 7.5 7.5 7.5s7.5-3.358 7.5-7.5v-30.156c0-4.142-3.358-7.5-7.5-7.5s-7.5 3.358-7.5 7.5z"/><path d="m156.345 478.025c-10.853-14.818-16.906-32.192-17.614-50.451h12.324c4.105 0 7.77-2.452 9.336-6.248 1.565-3.795.696-8.118-2.215-11.013l-36.561-36.355c-3.925-3.905-10.314-3.906-14.243-.001l-36.561 36.356c-2.912 2.895-3.781 7.218-2.215 11.013s5.23 6.248 9.336 6.248h12.451c1.104 27.859 17.718 53.339 42.958 65.492l16.414 7.903c1.396.672 2.882.997 4.354.997 2.905 0 5.749-1.266 7.705-3.619 2.947-3.544 3.104-8.616.38-12.335zm-51.02-53.413v-4.538c0-4.142-3.358-7.5-7.5-7.5h-8.013l24.682-24.544 24.682 24.544h-8.015c-4.142 0-7.5 3.358-7.5 7.5v3.873c0 19.68 5.308 38.596 15.427 55.232-20.539-10.25-33.763-31.574-33.763-54.567z"/><path d="m337.905 41.22c10.853 14.818 16.906 32.192 17.614 50.451h-12.324c-4.105 0-7.77 2.452-9.336 6.248-1.565 3.795-.696 8.118 2.215 11.013l36.562 36.357c1.963 1.952 4.542 2.928 7.121 2.928s5.158-.977 7.122-2.928l36.561-36.356c2.912-2.895 3.781-7.218 2.215-11.013s-5.23-6.248-9.336-6.248h-12.451c-.177-4.502-.756-9-1.729-13.407-.892-4.046-4.9-6.603-8.939-5.708-4.045.892-6.601 4.894-5.708 8.939.952 4.315 1.434 8.736 1.434 13.139v4.538c0 4.142 3.358 7.5 7.5 7.5h8.013l-24.682 24.544-24.682-24.544h8.015c4.142 0 7.5-3.358 7.5-7.5v-3.873c0-19.68-5.308-38.597-15.427-55.232 7.485 3.729 14.01 8.861 19.405 15.263 2.668 3.167 7.399 3.571 10.568.901 3.167-2.669 3.571-7.401.901-10.568-6.95-8.246-15.404-14.801-25.128-19.483l-16.415-7.904c-4.153-2-9.111-.92-12.058 2.624-2.947 3.543-3.103 8.616-.38 12.334z"/></g></svg>