<svg id="Capa_1" enable-background="new 0 0 511.246 511.246" height="512" viewBox="0 0 511.246 511.246" width="512" xmlns="http://www.w3.org/2000/svg"><g><path d="m499.544 413.592h-8.213v-264.342c0-27.021-21.984-49.005-49.006-49.005h-26.604c-4.143 0-7.5 3.357-7.5 7.5s3.357 7.5 7.5 7.5h26.604c18.751 0 34.006 15.255 34.006 34.005v264.343h-167.653c-5.119 0-9.894 2.526-12.771 6.756l-2.249 3.305c-2.089 3.071-5.555 4.904-9.27 4.904h-58.532c-3.714 0-7.179-1.833-9.269-4.904l-2.248-3.304c-2.878-4.23-7.652-6.757-12.771-6.757h-79.91c-4.143 0-7.5 3.357-7.5 7.5s3.357 7.5 7.5 7.5h79.91c.148 0 .286.072.37.195l2.249 3.305c4.886 7.179 12.986 11.465 21.669 11.465h58.532c8.685 0 16.786-4.286 21.671-11.466l2.249-3.305c.083-.122.221-.194.369-.194h187.568v8.115c0 19.96-16.239 36.199-36.199 36.199h-408.847c-19.96 0-36.199-16.239-36.199-36.199v-8.115h74.695c4.143 0 7.5-3.357 7.5-7.5s-3.357-7.5-7.5-7.5h-54.78v-264.343c0-18.75 15.255-34.005 34.006-34.005h22.117c4.143 0 7.5-3.357 7.5-7.5s-3.357-7.5-7.5-7.5h-22.117c-27.021 0-49.006 21.983-49.006 49.005v264.343h-8.213c-6.452-.001-11.702 5.249-11.702 11.702v11.413c0 28.231 22.968 51.199 51.199 51.199h408.848c28.231 0 51.199-22.968 51.199-51.199v-11.413c0-6.453-5.25-11.703-11.702-11.703z"/><path d="m68.92 147.244h48.305c4.143 0 7.5-3.357 7.5-7.5s-3.357-7.5-7.5-7.5h-48.305c-9.377 0-17.005 7.629-17.005 17.006v239.843c0 4.143 3.357 7.5 7.5 7.5h392.416c4.143 0 7.5-3.357 7.5-7.5v-63.469c0-4.143-3.357-7.5-7.5-7.5s-7.5 3.357-7.5 7.5v55.969h-377.416v-232.343c0-1.107.899-2.006 2.005-2.006z"/><path d="m459.331 149.25c0-9.377-7.629-17.006-17.006-17.006h-24.292c-4.143 0-7.5 3.357-7.5 7.5s3.357 7.5 7.5 7.5h24.292c1.106 0 2.006.899 2.006 2.006v144.411c0 4.143 3.357 7.5 7.5 7.5s7.5-3.357 7.5-7.5z"/><path d="m125.407 121.315 17.697 9.502v69.849c0 25.567 20.801 46.367 46.368 46.367h132.301c25.567 0 46.368-20.8 46.368-46.367v-70.385l10.869-5.836v133.531c-11.393 3.267-19.758 13.771-19.758 26.2 0 15.03 12.228 27.258 27.258 27.258s27.258-12.228 27.258-27.258c0-12.429-8.365-22.934-19.758-26.2v-151.995s0-.001 0-.002c0-6.421-3.515-12.295-9.172-15.333l-121.48-65.229c-5.155-2.771-11.313-2.771-16.469-.001l-121.482 65.23c-5.658 3.038-9.173 8.914-9.172 15.336 0 6.421 3.515 12.297 9.172 15.333zm273.362 162.861c0 6.759-5.499 12.258-12.258 12.258s-12.258-5.499-12.258-12.258 5.499-12.258 12.258-12.258 12.258 5.5 12.258 12.258zm-266.266-180.315 121.484-65.23c.712-.381 1.56-.382 2.273.001l121.482 65.229c1.104.593 1.268 1.583 1.268 2.12s-.164 1.526-1.268 2.119l-121.483 65.23c-.711.383-1.562.383-2.274 0l-34.419-18.481c-3.649-1.961-8.195-.59-10.155 3.06s-.59 8.196 3.06 10.155l34.418 18.481c2.578 1.385 5.406 2.077 8.234 2.077s5.656-.692 8.233-2.077l89.785-48.21v62.331c0 17.296-14.071 31.367-31.368 31.367h-132.3c-17.297 0-31.368-14.071-31.368-31.367v-61.795l25.31 13.59c3.65 1.962 8.198.59 10.155-3.06 1.96-3.649.59-8.196-3.06-10.155l-58.007-31.147c-1.104-.592-1.268-1.581-1.268-2.118s.164-1.527 1.268-2.12z"/></g></svg>