<svg id="Capa_1" enable-background="new 0 0 511.247 511.247" height="512" viewBox="0 0 511.247 511.247" width="512" xmlns="http://www.w3.org/2000/svg"><g><path d="m503.747 420.967h-12.415v-264.343c0-27.021-21.984-49.005-49.006-49.005h-19.411c-4.143 0-7.5 3.357-7.5 7.5s3.357 7.5 7.5 7.5h19.411c18.751 0 34.006 15.255 34.006 34.005v264.343h-167.654c-5.118 0-9.893 2.525-12.771 6.756l-2.249 3.305c-2.09 3.071-5.555 4.904-9.27 4.904h-58.531c-3.714 0-7.18-1.833-9.27-4.904l-2.249-3.305c-2.879-4.23-7.653-6.756-12.771-6.756h-166.651v-264.343c0-18.75 15.255-34.005 34.006-34.005h122.002c4.142 0 7.5-3.357 7.5-7.5s-3.358-7.5-7.5-7.5h-122.003c-27.022 0-49.006 21.983-49.006 49.005v264.343h-12.415c-4.142 0-7.5 3.357-7.5 7.5v15.615c0 28.231 22.968 51.199 51.199 51.199h408.848c28.231 0 51.199-22.968 51.199-51.199v-15.615c.001-4.143-3.357-7.5-7.499-7.5zm-7.5 23.115c0 19.96-16.239 36.199-36.199 36.199h-408.849c-19.96 0-36.199-16.239-36.199-36.199v-8.115h186.569c.148 0 .287.073.37.195l2.249 3.305c4.885 7.179 12.986 11.465 21.67 11.465h58.531c8.684 0 16.784-4.286 21.67-11.465l2.249-3.305.001-.001c.083-.122.221-.194.369-.194h187.568v8.115z"/><path d="m280.283 115.119c0 4.143 3.357 7.5 7.5 7.5h28.208c4.143 0 7.5-3.357 7.5-7.5s-3.357-7.5-7.5-7.5h-28.208c-4.143 0-7.5 3.357-7.5 7.5z"/><path d="m315.991 154.618c4.143 0 7.5-3.357 7.5-7.5s-3.357-7.5-7.5-7.5h-28.208c-4.143 0-7.5 3.357-7.5 7.5s3.357 7.5 7.5 7.5z"/><path d="m345.991 257.163c-4.143 0-7.5 3.357-7.5 7.5v124.304h-17.724v-187.06c0-9.091-7.396-16.487-16.488-16.487h-28.948c-9.092 0-16.488 7.396-16.488 16.487v187.06h-17.723v-145.353c0-9.091-7.396-16.487-16.488-16.487h-28.949c-9.091 0-16.487 7.396-16.487 16.487v145.353h-17.724v-113.032c0-9.092-7.396-16.488-16.487-16.488h-28.949c-9.091 0-16.488 7.396-16.488 16.488v40.324c0 4.143 3.358 7.5 7.5 7.5s7.5-3.357 7.5-7.5v-40.324c0-.82.667-1.488 1.488-1.488h28.949c.82 0 1.487.668 1.487 1.488v113.031h-31.924v-40.718c0-4.143-3.358-7.5-7.5-7.5s-7.5 3.357-7.5 7.5v40.718h-32.632v-232.342c0-1.106.899-2.006 2.005-2.006h122.003c4.142 0 7.5-3.357 7.5-7.5s-3.358-7.5-7.5-7.5h-122.003c-9.377 0-17.005 7.629-17.005 17.006v239.843c0 4.143 3.358 7.5 7.5 7.5h392.416c4.143 0 7.5-3.357 7.5-7.5v-239.843c0-9.377-7.629-17.006-17.006-17.006h-19.411c-4.143 0-7.5 3.357-7.5 7.5s3.357 7.5 7.5 7.5h19.411c1.106 0 2.006.899 2.006 2.006v232.343h-43.917v-279.343c0-9.091-7.396-16.487-16.487-16.487h-28.949c-9.091 0-16.487 7.396-16.487 16.487v123.05c0 4.143 3.357 7.5 7.5 7.5s7.5-3.357 7.5-7.5v-123.05c0-.82.667-1.487 1.487-1.487h28.949c.82 0 1.487.667 1.487 1.487v279.343h-31.924v-124.304c0-4.143-3.358-7.5-7.5-7.5zm-151.796 131.804v-145.353c0-.82.667-1.487 1.487-1.487h28.949c.82 0 1.488.667 1.488 1.487v145.353zm79.647 0v-187.06c0-.82.668-1.487 1.488-1.487h28.948c.82 0 1.488.667 1.488 1.487v187.06z"/><path d="m200.113 81.723h13.312v17.194c0 4.143 3.358 7.5 7.5 7.5s7.5-3.357 7.5-7.5v-21.794c0-5.734-4.666-10.399-10.4-10.399h-7.79l29.119-33.362 29.119 33.362h-7.789c-5.734 0-10.399 4.665-10.399 10.399v85.634h-21.859v-31.85c0-4.143-3.358-7.5-7.5-7.5s-7.5 3.357-7.5 7.5v34.249c0 6.948 5.653 12.601 12.601 12.601h26.657c6.948 0 12.602-5.652 12.602-12.601v-83.433h13.311c4.069 0 7.786-2.394 9.469-6.098s1.041-8.078-1.634-11.14l-39.241-44.959c-1.975-2.264-4.831-3.562-7.835-3.562s-5.86 1.298-7.835 3.562l-39.24 44.958c-2.676 3.063-3.317 7.438-1.634 11.141 1.681 3.705 5.397 6.098 9.466 6.098z"/></g></svg>