<svg id="Capa_1" enable-background="new 0 0 510.412 510.412" height="512" viewBox="0 0 510.412 510.412" width="512" xmlns="http://www.w3.org/2000/svg"><g><path d="m98.778 333.794c-11.43 10.632-20.61 23.159-27.287 37.234l-3.527 7.437-57.376 72.425c-2.572 3.247-2.025 7.964 1.222 10.536 1.378 1.092 3.021 1.621 4.652 1.621 2.212 0 4.403-.974 5.884-2.843l57.906-73.095c.353-.445.653-.93.897-1.442l3.895-8.21c5.859-12.352 13.917-23.348 23.951-32.681 3.032-2.821 3.204-7.566.383-10.6-2.821-3.031-7.566-3.205-10.6-.382z"/><path d="m494.623 283.016c-10.278-12.128-28.504-13.631-40.629-3.354l-3.877 3.286c-.908-4.689-2.987-9.215-6.289-13.11-10.276-12.125-28.503-13.629-40.629-3.354l-3.44 2.915c-.963-4.54-3.034-8.91-6.242-12.695-10.277-12.126-28.502-13.629-40.629-3.354l-57.647 48.854c-2.96-.838-6.077-1.296-9.302-1.296h-103.576c-19.213 0-38.434 4.608-55.583 13.326-3.692 1.877-5.164 6.392-3.287 10.084s6.392 5.165 10.084 3.287c15.055-7.652 31.924-11.697 48.786-11.697h103.577c10.589 0 19.204 8.615 19.204 19.204 0 5.211-2.052 10.088-5.777 13.732-3.723 3.642-8.613 5.555-13.846 5.468-.055-.001-.11-.002-.166-.002h-66.849c-4.143 0-7.5 3.357-7.5 7.5s3.357 7.5 7.5 7.5h66.771c.231.005.462.007.693.007 8.983 0 17.439-3.445 23.885-9.749.945-.925 1.823-1.898 2.645-2.907h63.372c6.749 0 13.302-2.403 18.452-6.768l69.368-58.788c5.817-4.929 14.558-4.207 19.488 1.608 4.929 5.817 4.207 14.56-1.608 19.489l-109.506 92.804c-10.221 8.661-22.653 14.085-35.954 15.685l-13.511 1.626c-4.112.495-7.045 4.229-6.55 8.343.458 3.808 3.695 6.604 7.437 6.604.3 0 .602-.019.906-.055l13.51-1.626c16.226-1.951 31.392-8.567 43.859-19.134l109.507-92.804c12.125-10.276 13.63-28.503 3.353-40.629zm-132.037-18.223c5.815-4.93 14.559-4.207 19.489 1.608 4.543 5.361 4.366 13.168-.367 18.295l-61.612 52.215c.031-.597.048-1.197.048-1.799 0-9.892-4.225-18.811-10.96-25.062zm-24.894 76.868 75.205-63.734c5.818-4.93 14.56-4.207 19.488 1.608 4.93 5.817 4.208 14.56-1.608 19.489l-46.15 39.426c-2.443 2.07-5.553 3.211-8.755 3.211z"/><path d="m290.739 426.149-76.907 9.252c-1.897.229-3.636 1.172-4.86 2.638l-50.173 60.064c-2.655 3.18-2.231 7.909.948 10.564 1.402 1.172 3.107 1.744 4.804 1.744 2.146 0 4.276-.916 5.76-2.691l48.266-57.782 73.954-8.896c4.112-.495 7.046-4.229 6.551-8.342-.495-4.112-4.244-7.042-8.343-6.551z"/><path d="m231.184 214.609s-43.83-68.231-43.893-68.319c-7.419-10.523-12.346-22.805-14.249-35.517-.612-4.097-4.435-6.924-8.527-6.307-4.097.612-6.92 4.431-6.307 8.527 2.238 14.958 8.021 29.409 16.729 41.804l42.437 66.066v10.938c0 3.167 1.117 6.077 2.973 8.363v25.779c0 12.065 9.816 21.882 21.882 21.882h26.459c12.065 0 21.882-9.816 21.882-21.882v-25.779c1.856-2.286 2.973-5.196 2.973-8.363v-10.938l42.437-66.066c11.659-16.596 17.822-36.118 17.822-56.466 0-32.511-16.045-62.884-42.921-81.25-27.455-18.761-61.847-22.248-94.353-9.569-23.548 9.185-42.378 27.89-51.661 51.32-2.544 6.421-4.49 13.008-5.784 19.578-.801 4.064 1.845 8.008 5.908 8.809 4.073.804 8.008-1.845 8.809-5.908 1.118-5.677 2.805-11.381 5.013-16.954 7.753-19.568 23.487-35.194 43.167-42.87 27.821-10.851 57.14-7.941 80.438 7.979 22.78 15.569 36.382 41.313 36.382 68.866 0 17.292-5.248 33.875-15.177 47.958-.062.088-43.893 68.319-43.893 68.319-.776 1.21-1.189 2.616-1.189 4.054v11.437h-1.832l4.272-72.502h7.15c11.504 0 20.862-9.358 20.862-20.862v-.829c0-11.504-9.358-20.862-20.862-20.862-11.029 0-20.178 8.625-20.826 19.636l-.466 7.918h-22.693l-.466-7.918c-.648-11.011-9.797-19.636-20.827-19.636-11.504 0-20.862 9.358-20.862 20.862v.829c0 11.504 9.358 20.862 20.862 20.862h7.151l4.271 72.502h-1.903v-11.437c.001-1.438-.412-2.844-1.188-4.054zm51.096-79.047c.182-3.095 2.752-5.519 5.852-5.519 3.232 0 5.862 2.63 5.862 5.862v.829c0 3.232-2.63 5.862-5.862 5.862h-6.267zm-59.427 7.035c-3.232 0-5.862-2.63-5.862-5.862v-.829c0-3.232 2.63-5.862 5.862-5.862 3.1 0 5.671 2.424 5.853 5.519l.415 7.035h-6.268zm52.715 123.347c0 3.795-3.087 6.882-6.882 6.882h-26.459c-3.795 0-6.882-3.087-6.882-6.882v-20.845h40.223zm-30.538-108.347h20.925l-4.272 72.502h-12.38z"/><path d="m385.353 106.476c0 4.143 3.357 7.5 7.5 7.5h17.68c4.143 0 7.5-3.357 7.5-7.5s-3.357-7.5-7.5-7.5h-17.68c-4.143 0-7.5 3.358-7.5 7.5z"/><path d="m380.99 66.822c.865 0 1.746-.151 2.605-.47l16.577-6.145c3.884-1.439 5.865-5.755 4.426-9.639-1.44-3.884-5.755-5.866-9.639-4.426l-16.577 6.145c-3.884 1.439-5.865 5.755-4.426 9.639 1.122 3.025 3.987 4.896 7.034 4.896z"/><path d="m378.383 160.666 16.577 6.144c.859.318 1.74.47 2.605.47 3.047 0 5.913-1.871 7.033-4.896 1.439-3.884-.542-8.199-4.426-9.639l-16.577-6.144c-3.884-1.438-8.2.543-9.639 4.426-1.438 3.884.543 8.199 4.427 9.639z"/><path d="m100.382 113.976h17.68c4.143 0 7.5-3.357 7.5-7.5s-3.357-7.5-7.5-7.5h-17.68c-4.143 0-7.5 3.357-7.5 7.5s3.357 7.5 7.5 7.5z"/><path d="m110.741 60.208 16.577 6.145c.859.318 1.739.47 2.605.47 3.047 0 5.912-1.871 7.033-4.896 1.439-3.884-.542-8.199-4.426-9.639l-16.577-6.145c-3.882-1.437-8.198.542-9.639 4.426-1.438 3.884.544 8.199 4.427 9.639z"/><path d="m136.957 151.027c-1.439-3.884-5.754-5.866-9.639-4.426l-16.577 6.144c-3.884 1.439-5.865 5.755-4.426 9.639 1.121 3.024 3.985 4.896 7.033 4.896.865 0 1.746-.151 2.605-.47l16.577-6.144c3.885-1.44 5.867-5.755 4.427-9.639z"/></g></svg>