<svg id="Capa_1" enable-background="new 0 0 512 512" height="512" viewBox="0 0 512 512" width="512" xmlns="http://www.w3.org/2000/svg"><g><g><path d="m505.41 359.206-13.433-13.434c-2.929-2.928-7.678-2.929-10.606 0-2.93 2.929-2.93 7.678-.001 10.607l13.434 13.434c1.416 1.417 2.196 3.3 2.196 5.303s-.78 3.886-2.197 5.303l-18.348 18.349c-2.925 2.924-7.683 2.924-10.607 0l-78.432-78.431 28.957-28.956 40.248 40.249c2.93 2.929 7.678 2.929 10.607 0s2.929-7.678 0-10.606l-41.267-41.266c-2.562-2.562-5.968-3.972-9.59-3.972-3.108 0-6.053 1.045-8.445 2.958l-24.334-24.334c13.101-19.525 20.754-42.998 20.754-68.226 0-67.694-55.073-122.767-122.767-122.767-15.389 0-30.118 2.86-43.703 8.055v-8.106c0-5.79-4.71-10.5-10.5-10.5h-189c-5.79 0-10.5 4.71-10.5 10.5v68.452c0 5.79 4.71 10.5 10.5 10.5h128.555c-5.235 13.63-8.118 28.415-8.118 43.866 0 57.41 39.614 105.735 92.94 119.096v138.856h-16.737v-115.051c0-6.141-4.996-11.137-11.138-11.137h-35.613c-6.142 0-11.138 4.996-11.138 11.137v115.049h-16.737v-56.134c0-4.142-3.357-7.5-7.5-7.5s-7.5 3.358-7.5 7.5v56.134h-27.888v-175.614h27.888v84.48c0 4.142 3.357 7.5 7.5 7.5s7.5-3.358 7.5-7.5v-88.343c0-6.141-4.996-11.137-11.137-11.137h-35.613c-6.142 0-11.138 4.996-11.138 11.137v179.477h-16.736v-252.291c0-6.141-4.996-11.137-11.138-11.137h-35.613c-6.142 0-11.138 4.996-11.138 11.137v252.292h-20.377c-4.143 0-7.5 3.358-7.5 7.5s3.357 7.5 7.5 7.5h322.519c4.143 0 7.5-3.358 7.5-7.5s-3.357-7.5-7.5-7.5h-20.377v-138.43c14.548-3.416 28.11-9.419 40.164-17.508l24.432 24.432c-3.656 5.282-3.145 12.598 1.555 17.299l79.448 79.448c4.386 4.386 10.147 6.579 15.909 6.579s11.524-2.193 15.911-6.579l18.348-18.349c4.25-4.25 6.591-9.9 6.591-15.91 0-6.012-2.341-11.662-6.59-15.911zm-434.644 84.928h-27.889v-248.428h27.889zm149.251 0h-27.889v-111.186h27.889zm-177.14-316.817v-59.451h180v59.452h-180zm251.765 316.817h-27.888v-136.082c4.862.588 9.808.898 14.826.898 4.413 0 8.768-.248 13.062-.704zm-13.062-150.184c-59.423 0-107.767-48.344-107.767-107.767 0-15.614 3.349-30.457 9.349-43.866h17.252c-7.085 13.056-11.125 27.996-11.125 43.866 0 50.89 41.401 92.292 92.291 92.292 43.756 0 81.801-31.117 90.463-73.989.82-4.06-1.806-8.017-5.866-8.837-4.061-.819-8.017 1.807-8.837 5.866-7.254 35.902-39.115 61.96-75.76 61.96-42.618 0-77.291-34.673-77.291-77.292 0-16.285 5.08-31.395 13.716-43.866h9.372c5.79 0 10.5-4.71 10.5-10.5v-9.319c12.44-8.569 27.489-13.607 43.703-13.607 36.018 0 67.762 25.535 75.481 60.716.889 4.046 4.889 6.605 8.934 5.718 4.046-.888 6.606-4.887 5.719-8.933-4.438-20.221-15.777-38.609-31.93-51.776-16.396-13.365-37.066-20.725-58.204-20.725-15.805 0-30.685 4.007-43.703 11.039v-17.237c13.366-5.955 28.152-9.277 43.703-9.277 59.423 0 107.767 48.344 107.767 107.767s-48.344 107.767-107.767 107.767zm80.255-14.938c4.486-3.884 8.689-8.087 12.573-12.573l22.846 22.846-12.573 12.573z"/><path d="m281.58 127.677c-32.26 0-58.506 26.246-58.506 58.506s26.246 58.506 58.506 58.506 58.506-26.246 58.506-58.506-26.246-58.506-58.506-58.506zm0 102.012c-23.989 0-43.506-19.517-43.506-43.506 0-9.281 2.931-17.886 7.902-24.957l30.304 30.264c1.406 1.404 3.313 2.193 5.3 2.193h42.845c-3.565 20.426-21.414 36.006-42.845 36.006zm3.104-51.006-28.107-28.07c7.08-4.991 15.702-7.935 25.003-7.935 21.431 0 39.28 15.58 42.845 36.006h-39.741z"/><path d="m93.302 90.092h-24.925c-4.143 0-7.5 3.358-7.5 7.5s3.357 7.5 7.5 7.5h24.925c4.143 0 7.5-3.358 7.5-7.5s-3.358-7.5-7.5-7.5z"/><path d="m197.377 90.092h-81c-4.143 0-7.5 3.358-7.5 7.5s3.357 7.5 7.5 7.5h81c4.143 0 7.5-3.358 7.5-7.5s-3.357-7.5-7.5-7.5z"/></g></g></svg>