<svg id="Capa_1" enable-background="new 0 0 512.899 512.899" height="512" viewBox="0 0 512.899 512.899" width="512" xmlns="http://www.w3.org/2000/svg"><g><path d="m42.362 143.467c4.142 0 7.5-3.358 7.5-7.5v-120.967h262.06v66.773c0 8.458 6.881 15.339 15.339 15.339h67.26v37.349c0 4.142 3.358 7.5 7.5 7.5s7.5-3.358 7.5-7.5v-42.049c0-3.652-1.422-7.085-4.004-9.667l-78.739-78.74c-2.582-2.583-6.015-4.005-9.668-4.005h-268.577c-7.538 0-13.671 6.133-13.671 13.671v122.296c0 4.142 3.358 7.5 7.5 7.5zm284.56-61.694v-56.41l56.749 56.749h-56.41c-.186 0-.339-.152-.339-.339z"/><path d="m402.022 346.071c-4.142 0-7.5 3.358-7.5 7.5v144.328h-344.66v-329.942c0-4.142-3.358-7.5-7.5-7.5s-7.5 3.358-7.5 7.5v331.271c0 7.538 6.133 13.671 13.671 13.671h347.317c7.538 0 13.671-6.133 13.671-13.671v-145.657c.001-4.142-3.357-7.5-7.499-7.5z"/><path d="m140.177 90.755c0-8.056-6.554-14.61-14.611-14.61h-40.158c-8.056 0-14.61 6.554-14.61 14.61v40.158c0 8.057 6.554 14.611 14.61 14.611h40.158c8.057 0 14.611-6.554 14.611-14.611zm-15 39.769h-39.379v-39.379h39.379z"/><path d="m158.785 101.521h119.952c4.142 0 7.5-3.358 7.5-7.5s-3.358-7.5-7.5-7.5h-119.952c-4.142 0-7.5 3.358-7.5 7.5s3.358 7.5 7.5 7.5z"/><path d="m158.785 135.148h119.952c4.142 0 7.5-3.358 7.5-7.5s-3.358-7.5-7.5-7.5h-119.952c-4.142 0-7.5 3.358-7.5 7.5s3.358 7.5 7.5 7.5z"/><path d="m140.177 181.146c0-8.057-6.554-14.611-14.611-14.611h-40.158c-8.056 0-14.61 6.554-14.61 14.611v40.158c0 8.057 6.554 14.611 14.61 14.611h40.158c8.057 0 14.611-6.554 14.611-14.611zm-15 39.768h-39.379v-39.379h39.379z"/><path d="m319.422 176.91h-160.637c-4.142 0-7.5 3.358-7.5 7.5s3.358 7.5 7.5 7.5h160.637c4.142 0 7.5-3.358 7.5-7.5s-3.357-7.5-7.5-7.5z"/><path d="m326.922 218.039c0-4.142-3.358-7.5-7.5-7.5h-160.637c-4.142 0-7.5 3.358-7.5 7.5s3.358 7.5 7.5 7.5h160.637c4.143 0 7.5-3.358 7.5-7.5z"/><path d="m140.177 271.535c0-8.057-6.554-14.611-14.611-14.611h-40.158c-8.056 0-14.61 6.554-14.61 14.611v40.158c0 8.057 6.554 14.611 14.61 14.611h40.158c8.057 0 14.611-6.554 14.611-14.611zm-15 39.769h-39.379v-39.379h39.379z"/><path d="m158.785 282.3h143.299c4.142 0 7.5-3.358 7.5-7.5s-3.358-7.5-7.5-7.5h-143.299c-4.142 0-7.5 3.358-7.5 7.5s3.358 7.5 7.5 7.5z"/><path d="m319.879 308.428c0-4.142-3.358-7.5-7.5-7.5h-153.594c-4.142 0-7.5 3.358-7.5 7.5s3.358 7.5 7.5 7.5h153.594c4.142 0 7.5-3.358 7.5-7.5z"/><path d="m125.566 347.314h-40.158c-8.056 0-14.61 6.554-14.61 14.611v40.158c0 8.057 6.554 14.611 14.61 14.611h40.158c8.057 0 14.611-6.554 14.611-14.611v-40.158c0-8.057-6.554-14.611-14.611-14.611zm-.389 54.379h-39.379v-39.379h39.379z"/><path d="m292.462 365.189c0-4.142-3.358-7.5-7.5-7.5h-126.177c-4.142 0-7.5 3.358-7.5 7.5s3.358 7.5 7.5 7.5h126.177c4.142 0 7.5-3.357 7.5-7.5z"/><path d="m158.785 391.318c-4.142 0-7.5 3.358-7.5 7.5s3.358 7.5 7.5 7.5h103.146c4.142 0 7.5-3.358 7.5-7.5s-3.358-7.5-7.5-7.5z"/><path d="m466.79 125.486-10.31-5.076c-9.967-4.908-22.07-.792-26.978 9.176l-148.501 301.591c-.777 1.577-1.146 3.339-1.067 5.098l1.447 31.995c.172 3.813 2.406 7.229 5.83 8.915 1.464.721 3.046 1.077 4.622 1.077 2.11 0 4.209-.638 6-1.89l26.244-18.362c1.441-1.009 2.612-2.376 3.387-3.95l41.236-83.746c1.83-3.716.301-8.212-3.416-10.042-3.714-1.83-8.211-.301-10.042 3.416l-23.567 47.861-19.549-9.626 101.86-206.867 19.55 9.626-64.144 130.269c-1.83 3.716-.301 8.212 3.416 10.042 3.717 1.831 8.212.301 10.042-3.416l93.117-189.11c4.907-9.97.79-22.072-9.177-26.981zm-170.798 333.865-.861-19.03 16.469 8.109zm29.057-34.347-5.282 10.727-19.549-9.626 5.282-10.727zm95.563-243.407 5.282-10.727 19.55 9.626-5.282 10.727zm41.897-35.759-10.439 21.202-19.55-9.626 10.439-21.201c1.253-2.547 4.345-3.6 6.895-2.345l10.309 5.076c2.548 1.254 3.6 4.347 2.346 6.894z"/></g></svg>