<svg id="Capa_1" enable-background="new 0 0 510.922 510.922" height="512" viewBox="0 0 510.922 510.922" width="512" xmlns="http://www.w3.org/2000/svg"><g><path d="m510.55 39.925v-20.47c0-10.727-8.727-19.455-19.455-19.455h-471.268c-10.728 0-19.455 8.728-19.455 19.455v20.47c0 8.07 4.941 15.006 11.956 17.948v302.052c-7.015 2.942-11.956 9.878-11.956 17.949v8.425c0 10.728 8.728 19.455 19.456 19.455h72.699c4.142 0 7.5-3.357 7.5-7.5s-3.358-7.5-7.5-7.5h-72.7c-2.457 0-4.456-1.999-4.456-4.455v-8.425c0-2.455 1.995-4.452 4.449-4.456h.006c.007 0 .013-.001.019-.001h471.229c.007 0 .013.001.019.001h.006c2.454.004 4.449 2 4.449 4.456v8.425c0 2.456-1.999 4.455-4.456 4.455h-366.532c-4.142 0-7.5 3.357-7.5 7.5s3.358 7.5 7.5 7.5h123.401v54.068h-9.216c-14.088 0-25.55 11.462-25.55 25.551 0 14.088 11.462 25.55 25.55 25.55h33.432c14.088 0 25.55-11.462 25.55-25.55 0-14.089-11.462-25.551-25.55-25.551h-9.216v-54.068h228.134c10.728 0 19.456-8.728 19.456-19.455v-8.425c0-8.071-4.941-15.007-11.956-17.949v-302.052c7.014-2.942 11.955-9.878 11.955-17.948zm-227.823 445.447c0 5.817-4.733 10.55-10.55 10.55h-33.432c-5.817 0-10.55-4.732-10.55-10.55s4.733-10.551 10.55-10.551h33.432c5.817 0 10.55 4.734 10.55 10.551zm-267.355-465.917c0-2.457 1.999-4.455 4.456-4.455h471.268c2.457 0 4.456 1.998 4.456 4.455v20.47c0 2.456-1.999 4.455-4.456 4.455h-68.16c-4.142 0-7.5 3.357-7.5 7.5s3.358 7.5 7.5 7.5h60.66v299.037h-456.269v-299.037h363.574c4.142 0 7.5-3.357 7.5-7.5s-3.358-7.5-7.5-7.5h-371.074c-2.457 0-4.456-1.999-4.456-4.455v-20.47z"/><path d="m379.002 92.089c-13.937 14.283-29.33 29.891-37.179 37.616-1.251-1.36-2.535-2.697-3.856-4.006-21.937-21.751-50.902-33.863-81.561-34.105-.319-.002-.636-.004-.956-.004-31.364 0-60.804 12.197-82.988 34.406-22.409 22.435-34.593 52.26-34.307 83.982.22 24.498 8.11 47.293 21.356 66.094l-40.095 40.095h-60.97c-4.142 0-7.5 3.357-7.5 7.5s3.358 7.5 7.5 7.5h64.078c1.989 0 3.897-.79 5.303-2.196l41.136-41.136c21.314 23.314 51.829 38.104 85.548 38.371.324.002.647.004.97.004 26.304 0 51.142-8.503 71.889-24.621 3.542-2.751 5.549-6.896 5.507-11.374-.042-4.46-2.116-8.549-5.688-11.218l-20.327-15.188c-4.784-3.572-11.327-3.816-16.285-.604-11.317 7.336-24.471 10.901-38.053 10.296-11.045-.487-21.869-3.876-31.3-9.799-3.508-2.203-8.137-1.144-10.34 2.362-2.203 3.508-1.145 8.138 2.363 10.341 11.627 7.302 24.98 11.479 38.616 12.081 16.519.734 32.549-3.551 46.392-12.384l19.098 14.269c-17.924 13.646-39.275 20.839-61.875 20.839-.281 0-.566-.001-.847-.004-55.455-.439-100.976-45.91-101.475-101.362-.249-27.668 10.377-53.682 29.92-73.247 19.349-19.37 45.022-30.007 72.379-30.007.276 0 .557.002.833.004 55.062.434 100.58 45.57 101.469 100.615.213 13.233-2.058 26.128-6.754 38.349l-19.079-14.255c2.492-8.508 3.538-17.351 3.109-26.292-.934-19.517-9.07-37.992-22.91-52.023-13.845-14.038-32.208-22.421-51.707-23.604-22.882-1.382-45.266 7.101-61.396 23.29-16.128 16.189-24.533 38.603-23.058 61.491.845 13.111 5.025 25.947 12.087 37.12 2.213 3.501 6.846 4.548 10.347 2.333 3.501-2.213 4.545-6.846 2.333-10.347-5.726-9.059-9.114-19.457-9.798-30.071-1.198-18.596 5.623-36.798 18.716-49.939 13.093-13.143 31.271-20.036 49.86-18.904 15.8.959 30.693 7.766 41.936 19.164 11.242 11.398 17.85 26.388 18.607 42.209.356 7.44-.54 14.788-2.666 21.84-1.706 5.661.343 11.853 5.099 15.406l20.394 15.237c3.567 2.666 8.071 3.498 12.356 2.285 4.288-1.214 7.688-4.287 9.329-8.431 5.687-14.354 8.442-29.528 8.191-45.1-.384-23.745-7.888-46.412-21.446-65.535 3.668-3.541 9.016-8.955 17.188-17.229 7.679-7.776 15.368-15.629 19.031-19.376h61.693c4.142 0 7.5-3.357 7.5-7.5s-3.358-7.5-7.5-7.5h-64.849c-2.021-.001-3.956.815-5.368 2.262z"/><path d="m449.221 133.001h-48.424c-4.142 0-7.5 3.357-7.5 7.5s3.358 7.5 7.5 7.5h48.424c4.142 0 7.5-3.357 7.5-7.5s-3.358-7.5-7.5-7.5z"/><path d="m449.221 178.447h-48.424c-4.142 0-7.5 3.357-7.5 7.5s3.358 7.5 7.5 7.5h48.424c4.142 0 7.5-3.357 7.5-7.5s-3.358-7.5-7.5-7.5z"/><path d="m449.221 223.893h-48.424c-4.142 0-7.5 3.357-7.5 7.5s3.358 7.5 7.5 7.5h48.424c4.142 0 7.5-3.357 7.5-7.5s-3.358-7.5-7.5-7.5z"/><path d="m449.221 269.339h-48.424c-4.142 0-7.5 3.357-7.5 7.5s3.358 7.5 7.5 7.5h48.424c4.142 0 7.5-3.357 7.5-7.5s-3.358-7.5-7.5-7.5z"/><path d="m58.446 287.922h55.453c4.142 0 7.5-3.357 7.5-7.5s-3.358-7.5-7.5-7.5h-55.453c-4.142 0-7.5 3.357-7.5 7.5s3.358 7.5 7.5 7.5z"/><path d="m58.446 243.776h55.453c4.142 0 7.5-3.357 7.5-7.5s-3.358-7.5-7.5-7.5h-55.453c-4.142 0-7.5 3.357-7.5 7.5s3.358 7.5 7.5 7.5z"/><path d="m58.446 199.631h55.453c4.142 0 7.5-3.357 7.5-7.5s-3.358-7.5-7.5-7.5h-55.453c-4.142 0-7.5 3.357-7.5 7.5s3.358 7.5 7.5 7.5z"/><path d="m58.446 155.485h55.453c4.142 0 7.5-3.357 7.5-7.5s-3.358-7.5-7.5-7.5h-55.453c-4.142 0-7.5 3.357-7.5 7.5s3.358 7.5 7.5 7.5z"/></g></svg>