<svg id="Capa_1" enable-background="new 0 0 511.994 511.994" height="512" viewBox="0 0 511.994 511.994" width="512" xmlns="http://www.w3.org/2000/svg"><g><path d="m302.027 231.948c-4.126 3.892-6.733 9.139-7.312 14.905-.726 7.227 1.833 14.287 7.021 19.37 12.316 12.07 32.358 12.072 44.675 0 5.188-5.084 7.747-12.145 7.021-19.372-.58-5.766-3.188-11.012-7.313-14.904v-5.017h81.536c6.072 0 11.013-4.94 11.013-11.013v-170.311c0-25.094-20.415-45.509-45.509-45.509h-347.65c-25.094 0-45.509 20.415-45.509 45.509v347.649c0 25.094 20.415 45.509 45.509 45.509h169.202c6.685 0 12.123-5.438 12.123-12.123v-78.273c0-8.633-7.023-15.657-15.657-15.657h-7.97c-2.542 0-4.911 1.288-6.294 3.421-1.46 2.252-3.829 3.698-6.5 3.967-2.674.265-5.28-.678-7.159-2.595-6.397-6.528-6.397-17.149 0-23.677 1.878-1.917 4.484-2.864 7.159-2.595 2.671.268 5.04 1.714 6.5 3.967 1.383 2.133 3.752 3.421 6.294 3.421h7.97c8.634 0 15.657-7.023 15.657-15.657v-76.033h75.193zm-90.85 71.672h-4.36c-3.892-4.126-9.138-6.733-14.904-7.312-7.229-.727-14.288 1.833-19.371 7.021-12.072 12.317-12.072 32.358 0 44.675 5.083 5.188 12.143 7.746 19.371 7.021 5.766-.579 11.013-3.187 14.904-7.312h4.36c.362 0 .657.294.657.657v75.396h-166.325c-16.822-.002-30.509-13.688-30.509-30.51v-166.325h75.396c8.633 0 15.656-7.023 15.656-15.656v-7.971c0-2.542-1.288-4.911-3.421-6.293-2.252-1.46-3.698-3.829-3.967-6.5-.268-2.671.678-5.281 2.595-7.159 6.529-6.398 17.151-6.397 23.677 0 1.918 1.879 2.863 4.489 2.596 7.16-.269 2.671-1.715 5.04-3.967 6.5-2.133 1.382-3.421 3.751-3.421 6.293v7.971c0 8.633 7.023 15.656 15.657 15.656h28.658c4.143 0 7.5-3.358 7.5-7.5s-3.357-7.5-7.5-7.5h-28.658c-.362 0-.657-.294-.657-.656v-4.361c4.126-3.892 6.733-9.138 7.312-14.904.726-7.227-1.833-14.288-7.021-19.372-12.315-12.069-32.356-12.071-44.676 0-5.188 5.084-7.746 12.145-7.021 19.372.579 5.766 3.187 11.012 7.312 14.904v4.361c0 .362-.294.656-.656.656h-75.394v-166.326c0-16.823 13.687-30.509 30.509-30.509h166.325v80.116c0 6.855 5.577 12.433 12.433 12.433h11.194c2.542 0 4.911-1.288 6.294-3.421 1.46-2.252 3.829-3.698 6.5-3.967 2.675-.268 5.28.678 7.159 2.595 6.396 6.528 6.396 17.149 0 23.677-1.878 1.917-4.485 2.861-7.159 2.595-2.671-.268-5.04-1.714-6.5-3.967-1.383-2.133-3.752-3.421-6.294-3.421h-11.194c-6.855 0-12.433 5.578-12.433 12.433v77.76h-15.412c-4.143 0-7.5 3.358-7.5 7.5s3.357 7.5 7.5 7.5h15.412v76.033c0 .363-.295.657-.657.657zm15.657-91.689v-75.193h5.018c3.892 4.126 9.138 6.733 14.904 7.312 7.228.723 14.287-1.833 19.371-7.021 12.07-12.317 12.07-32.358 0-44.675-5.083-5.188-12.143-7.748-19.371-7.021-5.766.579-11.013 3.187-14.904 7.312h-5.018v-77.548h166.324c16.822 0 30.509 13.686 30.509 30.509v166.325h-80.115c-6.855 0-12.434 5.578-12.434 12.433v11.194c0 2.542 1.288 4.911 3.421 6.294 2.253 1.46 3.699 3.829 3.967 6.5.269 2.671-.677 5.28-2.594 7.159-6.53 6.398-17.15 6.396-23.679 0-1.917-1.878-2.862-4.487-2.594-7.158s1.714-5.041 3.967-6.501c2.133-1.382 3.421-3.751 3.421-6.293v-11.194c0-6.855-5.578-12.433-12.434-12.433h-77.759z"/><path d="m503.994 285.063h-87.115c-6.855 0-12.434 5.578-12.434 12.433v11.193c0 2.542 1.287 4.911 3.421 6.293 2.253 1.46 3.698 3.83 3.967 6.501s-.677 5.28-2.594 7.159c-6.527 6.396-17.15 6.398-23.678 0-1.918-1.879-2.863-4.489-2.595-7.16s1.714-5.04 3.967-6.5c2.133-1.383 3.421-3.752 3.421-6.294v-11.193c0-6.855-5.578-12.433-12.434-12.433h-84.76c-4.411 0-8 3.589-8 8v24.919c0 4.142 3.357 7.5 7.5 7.5s7.5-3.358 7.5-7.5v-17.919h75.193v5.017c-4.126 3.892-6.733 9.138-7.312 14.904-.727 7.227 1.832 14.288 7.021 19.372 12.317 12.072 32.358 12.071 44.676 0 5.187-5.083 7.746-12.144 7.02-19.371-.579-5.767-3.187-11.013-7.312-14.905v-5.017h77.549v166.325c0 16.823-13.687 30.509-30.509 30.509h-166.325v-75.396c0-8.633-7.023-15.656-15.657-15.656h-7.97c-2.542 0-4.911 1.288-6.294 3.421-1.46 2.252-3.829 3.698-6.5 3.966-2.661.27-5.281-.677-7.16-2.595-6.397-6.528-6.396-17.149.001-23.677 1.879-1.917 4.494-2.859 7.159-2.595 2.671.268 5.04 1.714 6.5 3.966 1.383 2.133 3.752 3.421 6.294 3.421h7.97c8.634 0 15.657-7.023 15.657-15.656v-26.15c0-4.142-3.357-7.5-7.5-7.5s-7.5 3.358-7.5 7.5v26.15c0 .362-.295.656-.657.656h-4.36c-3.892-4.126-9.138-6.733-14.903-7.312-7.229-.726-14.288 1.832-19.373 7.021-12.071 12.317-12.07 32.358.001 44.675 5.083 5.188 12.142 7.744 19.371 7.021 5.767-.579 11.013-3.186 14.904-7.312h4.36c.362 0 .657.294.657.656v77.444c0 7.142 5.811 12.953 12.952 12.953h168.372c25.094 0 45.509-20.415 45.509-45.509v-173.325c0-4.411-3.589-8-8-8z"/></g></svg>