<svg id="Capa_1" enable-background="new 0 0 507.207 507.207" height="512" viewBox="0 0 507.207 507.207" width="512" xmlns="http://www.w3.org/2000/svg"><g><path d="m324.159 244.877c-14.183-11.221-34.92-9.615-47.209 3.654l-37.211 40.184-5.972-.383v-164.498c0-17.974-14.623-32.596-32.596-32.596-7.271 0-13.993 2.395-19.421 6.435-4.449-12.712-16.558-21.858-30.77-21.858-17.973 0-32.596 14.622-32.596 32.596v2.584c-5.08-3.272-11.118-5.179-17.596-5.179-17.222 0-31.359 13.429-32.511 30.364-5.097-3.305-11.166-5.233-17.681-5.233-17.973 0-32.596 14.622-32.596 32.596v109.062c0 4.143 3.358 7.5 7.5 7.5s7.5-3.357 7.5-7.5v-109.062c0-9.702 7.894-17.596 17.596-17.596s17.596 7.894 17.596 17.596v90.963c0 4.143 3.358 7.5 7.5 7.5s7.5-3.357 7.5-7.5v-116.094c0-9.702 7.894-17.596 17.596-17.596 9.703 0 17.596 7.894 17.596 17.596v117.279c0 4.143 3.358 7.5 7.5 7.5s7.5-3.357 7.5-7.5v-147.28c0-9.702 7.894-17.596 17.596-17.596s17.596 7.894 17.596 17.596v146.28c0 4.143 3.358 7.5 7.5 7.5s7.5-3.357 7.5-7.5v-130.857c0-9.702 7.894-17.596 17.596-17.596s17.596 7.894 17.596 17.596v164.46c-24.357 1.515-47.528 10.756-66.447 26.712l-14.802 12.483c-3.167 2.671-3.569 7.402-.898 10.568 2.67 3.167 7.403 3.569 10.568.898l14.803-12.483c19.695-16.61 44.698-24.848 70.412-23.198l9.935.638c2.254.145 4.45-.732 5.983-2.389l39.635-42.801c7.002-7.559 18.817-8.473 26.896-2.082 7.702 6.093 9.783 17.086 4.842 25.572l-55.037 94.52c-14.804 25.424-36.448 45.989-62.592 59.476-2.495 1.286-4.062 3.858-4.062 6.665v56.834c0 4.143 3.358 7.5 7.5 7.5s7.5-3.357 7.5-7.5v-52.334c26.868-14.791 49.147-36.525 64.617-63.092l55.037-94.52c8.672-14.895 5.019-34.191-8.499-44.884z"/><path d="m33.002 383.23v-78.662c0-4.143-3.358-7.5-7.5-7.5s-7.5 3.357-7.5 7.5v78.662c0 19.174 5.927 37.529 17.142 53.082 1.341 1.86 2.05 4.056 2.05 6.349v57.046c0 4.143 3.358 7.5 7.5 7.5s7.5-3.357 7.5-7.5v-57.046c0-5.462-1.688-10.691-4.883-15.122-9.362-12.981-14.309-28.304-14.309-44.309z"/><path d="m446.792 0h-155.656c-23.387 0-42.413 19.027-42.413 42.414v34.01c0 4.143 3.357 7.5 7.5 7.5s7.5-3.357 7.5-7.5v-34.01c0-15.116 12.298-27.414 27.413-27.414h155.656c15.115 0 27.413 12.298 27.413 27.414v91.676c0 15.116-12.298 27.414-27.413 27.414h-105.563c-1.41 0-2.792.397-3.986 1.147l-29.521 18.522v-12.17c0-4.143-3.357-7.5-7.5-7.5h-9.086c-15.115 0-27.413-12.298-27.413-27.414v-25.703c0-4.143-3.357-7.5-7.5-7.5s-7.5 3.357-7.5 7.5v25.703c0 23.387 19.026 42.414 42.413 42.414h1.586v6.001c0 5.188 2.82 9.971 7.359 12.481 2.151 1.19 4.529 1.782 6.903 1.781 2.637 0 5.27-.729 7.582-2.181l28.82-18.083h103.405c23.387 0 42.413-19.027 42.413-42.414v-91.674c.001-23.387-19.025-42.414-42.412-42.414z"/><path d="m376.464 96.191c7.178-1.521 13.834-5.193 18.944-10.576 6.955-7.325 10.497-16.925 9.973-27.031-.985-18.979-16.652-34.146-35.668-34.529-.25-.006-.497-.008-.745-.008-18.146 0-33.604 13.374-36.12 31.394-.232 1.674-.351 3.381-.351 5.073 0 4.143 3.357 7.5 7.5 7.5s7.5-3.357 7.5-7.5c0-1.004.07-2.016.207-3.003 1.479-10.599 10.581-18.464 21.268-18.464.146 0 .293.001.438.004 11.191.226 20.411 9.147 20.99 20.311.31 5.958-1.775 11.613-5.87 15.926-4.097 4.315-9.625 6.692-15.566 6.692-4.143 0-7.5 3.357-7.5 7.5v18.906c0 4.143 3.357 7.5 7.5 7.5s7.5-3.357 7.5-7.5z"/><path d="m368.964 127.347c-4.143 0-7.5 3.357-7.5 7.5v5.964c0 4.143 3.357 7.5 7.5 7.5s7.5-3.357 7.5-7.5v-5.964c0-4.143-3.357-7.5-7.5-7.5z"/></g></svg>