<svg id="Capa_1" enable-background="new 0 0 512 512" height="512" viewBox="0 0 512 512" width="512" xmlns="http://www.w3.org/2000/svg"><g><g><path d="m131.902 243.998c1.459 1.459 3.379 2.197 5.305 2.197 1.757 0 3.518-.614 4.936-1.854 4.634-4.053 9.95-6.992 15.798-8.733 3.18-.947 5.36-3.87 5.36-7.188v-52.187c0-2.172-.942-4.238-2.582-5.662s-3.813-2.065-5.968-1.764c-22.106 3.125-42.457 12.887-58.852 28.231-1.484 1.389-2.34 3.32-2.374 5.352s.759 3.99 2.196 5.427zm16.399-58.724v37.844c-3.674 1.502-7.165 3.377-10.452 5.614l-25.816-25.817c10.717-8.505 23.035-14.496 36.268-17.641z"/><path d="m208.758 368.798c.702 2.059 2.263 3.711 4.278 4.529.906.368 1.864.55 2.82.55 1.17 0 2.338-.274 3.405-.817 31.556-16.077 53.343-46.529 58.282-81.461.304-2.151-.339-4.328-1.764-5.968-1.424-1.64-3.49-2.582-5.662-2.582h-52.187c-3.318 0-6.242 2.18-7.188 5.36-2.677 8.993-8.389 16.967-16.085 22.454-2.698 1.924-3.814 5.391-2.745 8.527zm14.465-70.749h37.848c-5.646 23.665-20.4 44.275-41.04 57.331l-12.215-35.824c6.724-5.88 12.023-13.279 15.407-21.507z"/><path d="m322.293 150.486h-107.835c-6.341 0-11.5 5.159-11.5 11.5v10.855c-5.674-1.814-11.541-3.183-17.57-4.035-2.153-.303-4.329.34-5.968 1.764-1.64 1.424-2.582 3.49-2.582 5.662v52.187c0 3.318 2.18 6.241 5.36 7.188 13.772 4.101 24.443 14.771 28.543 28.544.946 3.18 3.87 5.36 7.188 5.36h52.188c2.172 0 4.238-.942 5.662-2.582 1.425-1.64 2.068-3.817 1.764-5.968-2.385-16.866-8.716-32.5-17.991-45.973h62.74c6.341 0 11.5-5.159 11.5-11.5v-41.502c.001-6.341-5.158-11.5-11.499-11.5zm-61.225 104.025h-37.836c-5.828-14.288-17.106-25.566-31.394-31.395v-37.835c3.802.909 7.511 2.06 11.12 3.423v14.784c0 6.341 5.159 11.5 11.5 11.5h26.201c9.729 11.182 16.859 24.677 20.409 39.523zm57.725-54.523h-100.835v-34.502h100.835z"/><path d="m232.282 190.237h15.109c4.142 0 7.5-3.358 7.5-7.5s-3.358-7.5-7.5-7.5h-15.109c-4.142 0-7.5 3.358-7.5 7.5s3.358 7.5 7.5 7.5z"/><path d="m267 190.237h37.469c4.142 0 7.5-3.358 7.5-7.5s-3.358-7.5-7.5-7.5h-37.469c-4.142 0-7.5 3.358-7.5 7.5s3.358 7.5 7.5 7.5z"/><path d="m28.885 369.999h30.115c4.142 0 7.5-3.358 7.5-7.5s-3.358-7.5-7.5-7.5h-30.115c-4.142 0-7.5 3.358-7.5 7.5s3.358 7.5 7.5 7.5z"/><path d="m79.093 369.999h13.947c4.142 0 7.5-3.358 7.5-7.5s-3.358-7.5-7.5-7.5h-13.947c-4.142 0-7.5 3.358-7.5 7.5s3.358 7.5 7.5 7.5z"/><path d="m303.372 300.121h-3.811c-4.142 0-7.5 3.358-7.5 7.5s3.358 7.5 7.5 7.5h3.811c4.142 0 7.5-3.358 7.5-7.5s-3.358-7.5-7.5-7.5z"/><path d="m303.372 326.853h-3.811c-4.142 0-7.5 3.358-7.5 7.5s3.358 7.5 7.5 7.5h3.811c4.142 0 7.5-3.358 7.5-7.5s-3.358-7.5-7.5-7.5z"/><path d="m303.372 353.583h-3.811c-4.142 0-7.5 3.358-7.5 7.5s3.358 7.5 7.5 7.5h3.811c4.142 0 7.5-3.358 7.5-7.5s-3.358-7.5-7.5-7.5z"/><path d="m303.372 380.314h-3.811c-4.142 0-7.5 3.358-7.5 7.5s3.358 7.5 7.5 7.5h3.811c4.142 0 7.5-3.358 7.5-7.5s-3.358-7.5-7.5-7.5z"/><path d="m422.327 300.121h-96.415c-4.142 0-7.5 3.358-7.5 7.5s3.358 7.5 7.5 7.5h96.415c4.142 0 7.5-3.358 7.5-7.5s-3.358-7.5-7.5-7.5z"/><path d="m422.327 326.853h-96.415c-4.142 0-7.5 3.358-7.5 7.5s3.358 7.5 7.5 7.5h96.415c4.142 0 7.5-3.358 7.5-7.5s-3.358-7.5-7.5-7.5z"/><path d="m429.827 361.083c0-4.142-3.358-7.5-7.5-7.5h-96.415c-4.142 0-7.5 3.358-7.5 7.5s3.358 7.5 7.5 7.5h96.415c4.142 0 7.5-3.357 7.5-7.5z"/><path d="m325.912 380.314c-4.142 0-7.5 3.358-7.5 7.5s3.358 7.5 7.5 7.5h53.303c4.142 0 7.5-3.358 7.5-7.5s-3.358-7.5-7.5-7.5z"/><path d="m310.947 245.97c-11.028 0-20 8.972-20 20s8.972 20 20 20 20-8.972 20-20c0-1.864-.275-3.661-.755-5.374l23.446-18.087c3.305 2.415 7.363 3.859 11.761 3.859 3.511 0 6.81-.916 9.681-2.512l24.902 17.912c-.081.73-.131 1.47-.131 2.222 0 11.028 8.972 20 20 20s20-8.972 20-20c0-2.225-.381-4.359-1.054-6.359l12.316-12.316c2.001.674 4.135 1.054 6.359 1.054 11.028 0 20-8.972 20-20s-8.972-20-20-20-20 8.972-20 20c0 3.295.815 6.398 2.232 9.141l-10.712 10.712c-2.743-1.417-5.847-2.232-9.141-2.232-4.786 0-9.182 1.694-12.629 4.509l-22.69-16.321c.56-1.84.867-3.789.867-5.809 0-11.028-8.972-20-20-20s-20 8.972-20 20c0 1.134.117 2.238.299 3.321l-24.674 19.034c-2.963-1.739-6.4-2.754-10.077-2.754zm0 25c-2.757 0-5-2.243-5-5s2.243-5 5-5 5 2.243 5 5-2.243 5-5 5zm146.526-49.601c2.757 0 5 2.243 5 5s-2.243 5-5 5-5-2.243-5-5 2.243-5 5-5zm-37.621 37.621c2.757 0 5 2.243 5 5s-2.243 5-5 5-5-2.243-5-5 2.243-5 5-5zm-54.453-37.621c2.757 0 5 2.243 5 5s-2.243 5-5 5-5-2.243-5-5 2.244-5 5-5z"/><path d="m468.858 165.486c4.142 0 7.5-3.358 7.5-7.5s-3.358-7.5-7.5-7.5h-38c-4.142 0-7.5 3.358-7.5 7.5s3.358 7.5 7.5 7.5z"/><path d="m405 165.486c4.142 0 7.5-3.358 7.5-7.5s-3.358-7.5-7.5-7.5h-38c-4.142 0-7.5 3.358-7.5 7.5s3.358 7.5 7.5 7.5z"/><path d="m114.5 157.986c0-4.142-3.358-7.5-7.5-7.5h-38c-4.142 0-7.5 3.358-7.5 7.5s3.358 7.5 7.5 7.5h38c4.142 0 7.5-3.358 7.5-7.5z"/><path d="m468.858 300.121h-23.761c-4.142 0-7.5 3.358-7.5 7.5s3.358 7.5 7.5 7.5h23.761c4.142 0 7.5-3.358 7.5-7.5s-3.358-7.5-7.5-7.5z"/><path d="m468.858 326.853h-23.761c-4.142 0-7.5 3.358-7.5 7.5s3.358 7.5 7.5 7.5h23.761c4.142 0 7.5-3.358 7.5-7.5s-3.358-7.5-7.5-7.5z"/><path d="m468.858 353.583h-23.761c-4.142 0-7.5 3.358-7.5 7.5s3.358 7.5 7.5 7.5h23.761c4.142 0 7.5-3.358 7.5-7.5s-3.358-7.5-7.5-7.5z"/><path d="m468.858 380.314h-23.761c-4.142 0-7.5 3.358-7.5 7.5s3.358 7.5 7.5 7.5h23.761c4.142 0 7.5-3.358 7.5-7.5s-3.358-7.5-7.5-7.5z"/><path d="m494.5 64.353h-47.5c-4.142 0-7.5 3.358-7.5 7.5s3.358 7.5 7.5 7.5h47.5c1.378 0 2.5 1.122 2.5 2.5v27.193h-379.5v-29.693h294.5c4.142 0 7.5-3.358 7.5-7.5s-3.358-7.5-7.5-7.5h-371.397c-9.649 0-17.5 7.851-17.5 17.5v248.396h-11.603c-6.341 0-11.5 5.159-11.5 11.5v41.502c0 6.341 5.159 11.5 11.5 11.5h11.603v40.397c0 6.893 5.607 12.5 12.5 12.5h114.397c4.142 0 7.5-3.358 7.5-7.5s-3.358-7.5-7.5-7.5h-111.897v-37.898h72.321c6.341 0 11.5-5.159 11.5-11.5v-9.755c13.522 6.752 28.608 10.774 44.528 11.295 1.198.039 2.396.059 3.594.059 6.787 0 13.564-.628 20.192-1.874 2.138-.402 3.996-1.712 5.092-3.591s1.323-4.141.621-6.2l-16.839-49.384c-1.036-3.038-3.889-5.08-7.099-5.08 0 0-.001 0-.002 0h-1.942c-7.419 0-14.731-1.954-21.145-5.65-3.59-2.068-8.175-.836-10.243 2.754-2.068 3.589-.835 8.175 2.754 10.243 7.689 4.431 16.329 7.013 25.176 7.548l12.216 35.827c-3.941.366-7.914.488-11.885.356-16.391-.536-31.757-5.379-45.018-13.402v-14.648c0-6.341-5.159-11.5-11.5-11.5h-16.633c-10.132-14.235-16.414-31.371-17.203-49.877-.636-14.911 2.241-29.585 8.365-42.965l28.601 28.601c-.613 3.385-.923 6.825-.923 10.273 0 6.332 1.04 12.584 3.09 18.581 1.339 3.919 5.604 6.013 9.522 4.671 3.919-1.34 6.011-5.603 4.671-9.522-1.515-4.433-2.283-9.052-2.283-13.729 0-3.638.466-7.263 1.385-10.774.675-2.577-.068-5.319-1.952-7.203l-38.714-38.714c-1.638-1.639-3.947-2.43-6.241-2.138-2.299.29-4.335 1.626-5.516 3.62-10.708 18.086-15.892 38.812-14.991 59.938.761 17.845 5.915 34.601 14.374 49.239h-37.873v-206.203h458.897v308.602h-312c-4.142 0-7.5 3.358-7.5 7.5s3.358 7.5 7.5 7.5h314.5c6.893 0 12.5-5.607 12.5-12.5v-353.295c0-9.65-7.851-17.5-17.5-17.5zm-387.576 280.895v34.502h-91.924v-34.502zm-4.424-236.202h-64.397v-27.193c0-1.378 1.122-2.5 2.5-2.5h61.897z"/></g></g></svg>