<svg id="Capa_1" enable-background="new 0 0 513.141 513.141" height="512" viewBox="0 0 513.141 513.141" width="512" xmlns="http://www.w3.org/2000/svg"><g><path d="m116.181 278.882c-4.007-1.048-8.105 1.35-9.154 5.357l-10.708 40.92-93.844 117.135c-2.59 3.232-2.068 7.953 1.164 10.543 1.384 1.108 3.04 1.646 4.685 1.646 2.198 0 4.377-.962 5.858-2.811l94.842-118.381c.658-.821 1.136-1.772 1.402-2.791l11.112-42.465c1.049-4.006-1.349-8.104-5.357-9.153z"/><path d="m130.848 258.382c6.094-12.931 15.353-24.262 26.775-32.77l45.093-33.584c6.022-4.485 13.473-6.742 20.967-6.329l43.187 2.33c4.627.249 8.828 2.554 11.524 6.321 2.697 3.77 3.523 8.489 2.267 12.95-1.692 6.006-6.796 10.313-13.001 10.975l-38.012 4.049c-3.077.328-5.637 2.511-6.445 5.497l-14.521 53.612c-1.157 4.274-1.521 8.674-1.083 13.073l2.24 22.515c.385 3.87 3.646 6.759 7.454 6.759.248 0 .499-.013.751-.038 4.122-.41 7.131-4.084 6.721-8.205l-2.24-22.516c-.257-2.58-.043-5.16.636-7.667l13.179-48.658 32.909-3.505c12.338-1.315 22.484-9.881 25.85-21.822 2.5-8.869.857-18.254-4.506-25.748-5.362-7.493-13.715-12.075-22.915-12.57l-43.187-2.33c-10.263-.547-20.454 2.285-28.944 8.012l.115-.285c10.62-26.224 28.94-47.968 52.981-62.882l32.476-20.146c.73-.453 1.378-1.028 1.913-1.701l64.929-81.547c2.58-3.24 2.045-7.959-1.195-10.539s-7.959-2.044-10.539 1.195l-64.119 80.53-31.372 19.462c-26.761 16.602-47.155 40.807-58.976 69.997l-9.345 23.077-23.75 17.688c-13.392 9.974-24.244 23.254-31.385 38.405-1.766 3.747-.16 8.216 3.587 9.981 3.747 1.768 8.216.161 9.981-3.586z"/><path d="m509.501 24.36c-3.234-2.591-7.953-2.068-10.543 1.164l-41.677 52.02c-2.59 3.232-2.068 7.953 1.164 10.543 1.384 1.108 3.04 1.646 4.685 1.646 2.198 0 4.377-.962 5.858-2.811l41.677-52.02c2.59-3.231 2.069-7.952-1.164-10.542z"/><path d="m447.813 101.358c-3.233-2.591-7.953-2.068-10.543 1.164l-31.814 39.71c-2.121 2.649-3.302 5.979-3.323 9.372l-.216 34.225-7.642-.344c-15.714-.713-29.159 11.537-29.867 27.294l-.094 2.075c-.309 6.86 1.807 13.454 5.978 18.814-1.439.899-2.809 1.929-4.088 3.098-5.517 5.042-8.74 11.931-9.075 19.395l-.091 2.013c-.308 6.842 1.886 13.226 5.764 18.274-7.366 4.749-12.408 12.871-12.832 22.273l-.09 2.008c-.315 6.991 1.938 13.705 6.365 19.061-7.366 4.759-12.514 12.793-13.147 22.09-.377 5.538.828 10.923 3.429 15.663-.187.52-.324 1.066-.393 1.638l-4.435 36.8c-.037.296-.149.579-.323.821l-20.327 28.184c-2.604 3.608-7.579 4.556-11.324 2.158-1.89-1.209-3.194-3.082-3.673-5.273-.376-1.725-.199-3.48.482-5.07l11.464-17.494c.856-1.307 2.219-4.325 2.251-4.412.735-1.902 1.233-3.895 1.454-5.92l7.121-65.355c.448-4.118-2.526-7.819-6.644-8.269-4.124-.445-7.82 2.525-8.269 6.644l-7.121 65.356c-.061.559-.19 1.107-.36 1.643l-29.514 45.638c-2.668 4.07-7.839 5.605-12.295 3.657-2.504-1.096-4.402-3.113-5.344-5.68s-.799-5.333.402-7.79l12.207-24.947c.367-.75 1.759-5.79 1.968-7.603l8.17-71.04c.473-4.114-2.479-7.834-6.595-8.308-4.112-.467-7.833 2.479-8.308 6.595l-8.17 71.04c-.153 1.338-.655 2.619-1.451 3.705l-28.628 39.082c-2.872 3.924-8.085 5.139-12.4 2.887-4.585-2.396-6.51-7.964-4.381-12.679l15.609-34.573c2.342-5.184 3.282-10.918 2.719-16.581l-2.492-25.049c-.409-4.122-4.083-7.128-8.205-6.721-4.122.41-7.131 4.084-6.721 8.205l2.492 25.049c.303 3.048-.203 6.133-1.464 8.924l-15.61 34.573c-1.808 4.006-2.458 8.254-2.091 12.362l-10.843 3.768c-2.493.867-4.682 2.413-6.327 4.469l-50.454 62.976c-2.59 3.232-2.068 7.953 1.164 10.543 1.384 1.108 3.04 1.647 4.685 1.647 2.198 0 4.377-.962 5.858-2.811l50.273-62.75 11.434-3.973c2.01 2.37 4.498 4.396 7.409 5.917 3.688 1.925 7.635 2.852 11.528 2.852 7.649 0 15.088-3.576 19.918-10.171l3.912-5.341c.099.304.198.608.309.91 2.363 6.441 7.127 11.505 13.413 14.255 3.258 1.425 6.665 2.108 10.026 2.107 8.182 0 16.083-4.047 20.827-11.285l5.894-8.994c1.689 2.314 3.796 4.33 6.283 5.921 3.894 2.491 8.261 3.688 12.585 3.688 7.281 0 14.438-3.393 18.991-9.706l3.39-4.701c1.532 2.462 3.528 4.692 5.99 6.534 4.321 3.232 9.352 4.8 14.338 4.8 6.996 0 13.904-3.088 18.639-8.996l12.366-15.437c3.936-4.911 6.396-10.813 7.115-17.067l3.204-27.873c9.79-4.042 17.03-13.387 17.79-24.536.497-7.299-1.743-14.338-6.324-19.975 7.561-4.713 12.763-12.94 13.192-22.492l.091-2.013c.302-6.722-1.806-13.003-5.558-18.009 7.574-4.711 12.788-12.946 13.219-22.512l.09-2.009c.304-6.764-1.801-13.263-5.947-18.529 7.538-4.854 12.7-13.162 13.132-22.782l.093-2.07c.344-7.634-2.306-14.945-7.462-20.587-3.729-4.08-8.448-6.926-13.661-8.322l.25-35.574 31.813-39.709c2.594-3.234 2.072-7.955-1.16-10.545zm-35.425 148.103c2.339 2.56 3.541 5.876 3.386 9.342l-.09 2.009c-.322 7.149-6.358 12.703-13.55 12.383l-19.499-1.014c-6.27-1.155-10.906-6.788-10.612-13.331l.091-2.013c.156-3.463 1.651-6.659 4.21-8.997 2.412-2.204 5.496-3.399 8.742-3.399.198 0 18.326.811 18.326.811 3.462.155 6.657 1.65 8.996 4.209zm-4.456 53.88c-.321 7.148-6.384 12.7-13.55 12.384l-17.134-.771c-3.464-.156-6.659-1.651-8.998-4.21-2.338-2.559-3.54-5.876-3.385-9.342l.09-2.008c.322-7.148 6.39-12.699 13.55-12.384l18.904.987c6.271 1.155 10.908 6.788 10.614 13.332zm-31.698 103.24-12.367 15.437c-3.021 3.77-8.418 4.458-12.285 1.563-3.826-2.861-4.716-8.197-2.026-12.146l4.104-6.024c.015-.021.026-.044.04-.065 1.543-2.218 2.542-4.796 2.889-7.524l3.358-27.862c3.244 1.453 6.765 2.303 10.431 2.468l12.557.565-2.781 24.188c-.397 3.444-1.752 6.695-3.92 9.4zm24.85-61.117c-.499 7.328-6.842 13.004-14.212 12.69l-15.822-.712c-3.696-.167-7.089-1.778-9.554-4.538s-3.684-6.313-3.433-10.005c.499-7.327 6.862-13.003 14.211-12.69l15.823.712c3.696.167 7.089 1.778 9.554 4.538s3.684 6.313 3.433 10.005zm21.968-130.042-.093 2.07c-.337 7.497-6.688 13.319-14.209 12.985l-16.466-.741c-3.632-.163-6.982-1.731-9.436-4.415s-3.714-6.161-3.551-9.791l.094-2.075c.338-7.497 6.693-13.29 14.209-12.985l16.466.741c3.632.163 6.982 1.731 9.436 4.415 2.453 2.683 3.713 6.162 3.55 9.796z"/></g></svg>