<svg id="Capa_1" enable-background="new 0 0 512.724 512.724" height="512" viewBox="0 0 512.724 512.724" width="512" xmlns="http://www.w3.org/2000/svg"><path d="m510.78 106.158c-2.782-3.068-7.525-3.301-10.594-.519l-22.169 20.1c-.929.842-2.372.773-3.215-.157l-16.208-17.877c-2.782-3.068-7.525-3.301-10.594-.519s-3.301 7.525-.519 10.594l13.228 14.59-22.367 20.28c-1.123 1.018-1.911 2.352-2.26 3.827l-6.156 25.978c-3.323 14.025-10.723 26.555-21.401 36.237l-43.969 39.866c-4.442 4.028-11.333 3.69-15.362-.752-1.951-2.152-2.948-4.936-2.806-7.837s1.405-5.574 3.558-7.525l19.179-17.389c3.069-2.782 3.301-7.525.519-10.594-2.782-3.068-7.525-3.301-10.594-.519l-19.179 17.389c-3.031 2.748-5.314 6.1-6.748 9.807-3.199-1.503-6.715-2.3-10.355-2.304h-.027c-3.772 0-7.347.86-10.541 2.394-.787-2.495-1.967-4.815-3.463-6.895l18.722-16.975c3.069-2.782 3.301-7.525.519-10.594-2.782-3.068-7.525-3.301-10.594-.519l-10.622 9.63c-1.239-3.371-3.239-6.516-5.987-9.171l-5.923-5.722 9.607-8.71c3.069-2.782 3.301-7.525.519-10.594s-7.525-3.301-10.594-.519l-10.343 9.378-21.123-20.407c3.337-1.313 6.454-3.336 9.104-6.079 9.327-9.655 9.625-24.754 1.081-34.762l31.865-28.891c15.166-13.75 33.778-23.208 53.826-27.352 1.312-.271 2.527-.889 3.52-1.789l23.594-21.393 40.079 44.205c1.48 1.633 3.515 2.462 5.559 2.462 1.796 0 3.6-.642 5.035-1.944 3.069-2.782 3.301-7.525.519-10.594l-43.06-47.492c-.843-.93-.772-2.372.158-3.215l22.169-20.101c3.069-2.782 3.301-7.525.519-10.594s-7.524-3.301-10.594-.519l-22.169 20.101c-4.109 3.725-5.99 8.992-5.596 14.136l-24.796 22.482c-21.896 4.893-42.201 15.409-58.837 30.493l-32.51 29.476-33.679-32.53c-12.556-12.13-28.292-20.071-45.508-22.964l-24.034-4.039-22.656-21.888c.557-5.129-1.157-10.453-5.146-14.307l-21.521-20.792c-2.979-2.878-7.727-2.797-10.605.183-2.878 2.979-2.796 7.727.183 10.605l21.521 20.792c.903.873.928 2.317.056 3.22l-83.543 86.475c-.542.561-1.167.687-1.598.694-.424-.008-1.061-.098-1.621-.639l-21.522-20.792c-2.979-2.878-7.727-2.796-10.605.183s-2.796 7.727.183 10.605l21.521 20.792c3.246 3.136 7.495 4.852 11.996 4.852.102 0 .204-.001.306-.003.738-.013 1.464-.088 2.183-.191l24.062 23.247c6.33 21.524 18.165 41.09 34.315 56.693l15.652 15.122c1.456 1.406 3.334 2.106 5.21 2.106 1.963 0 3.923-.766 5.395-2.289 2.878-2.979 2.796-7.727-.183-10.605l-15.652-15.122c-14.723-14.224-25.391-32.17-30.85-51.9-.357-1.291-1.054-2.463-2.018-3.394l-22.905-22.128 77.376-80.092 21.715 20.979c1.09 1.053 2.473 1.751 3.968 2.002l26.328 4.425c14.214 2.389 27.207 8.944 37.573 18.959l42.685 41.238c4.313 4.167 4.432 11.065.266 15.377-3.714 3.844-9.595 4.347-13.884 1.461l-20.113-19.184c-2.979-2.878-7.727-2.797-10.605.183-2.878 2.979-2.796 7.727.183 10.605l73.537 70.797c1.973 1.906 2.945 4.466 2.87 7.029-1.396-.251-2.831-.39-4.299-.391h-.027c-3.357 0-6.558.681-9.473 1.912-.402-5.874-2.872-11.343-7.071-15.551-4.609-4.619-10.741-7.167-17.266-7.174h-.029c-2.054 0-4.069.253-6.011.742l-26.718-25.812c-2.979-2.878-7.728-2.797-10.605.183-2.878 2.979-2.796 7.727.183 10.605l24.162 23.343c-2.013 2.478-3.502 5.292-4.407 8.307-3.225-1.533-6.776-2.344-10.453-2.348h-.028c-1.858 0-3.683.213-5.452.615l-16.927-16.353c-2.979-2.878-7.727-2.797-10.605.183-2.878 2.979-2.796 7.727.183 10.605l14.121 13.642c-3.712 4.392-5.743 9.893-5.749 15.711l-.005 4.954-21.471-20.743c-2.979-2.878-7.727-2.797-10.605.183-2.878 2.979-2.796 7.727.183 10.605l31.87 30.789-.027 23.917c-1.824-.31-3.548-1.145-4.944-2.494l-46.012-44.452c-2.979-2.878-7.728-2.797-10.605.183-2.878 2.979-2.796 7.727.183 10.605l40.096 38.737c-2.908 1.273-5.585 3.084-7.899 5.393-4.893 4.881-7.591 11.376-7.599 18.288l-.066 59.351c-.02 17.458 5.185 34.299 15.05 48.702l13.771 20.106-.035 31.489c-.574.445-1.133.914-1.655 1.436-3.267 3.259-5.069 7.596-5.074 12.199l-.034 12.925c-.011 4.142 3.338 7.509 7.48 7.52h.02c4.133 0 7.489-3.345 7.5-7.48l.034-12.936c.001-.779.364-1.305.668-1.609s.789-.685 1.61-.665l120.238.133c1.255.001 2.275 1.024 2.274 2.269l-.033 12.924c-.011 4.142 3.338 7.508 7.481 7.519h.02c4.133 0 7.489-3.345 7.5-7.481l.033-12.935c.007-5.547-2.626-10.481-6.699-13.649l.037-33.471c11.104-19.494 16.977-41.594 17.001-64.05l.008-6.836c.005-4.143-3.349-7.504-7.491-7.509h-.009c-4.138 0-7.495 3.353-7.5 7.491l-.008 6.836c-.023 20.471-5.54 40.606-15.956 58.229-.682 1.153-1.042 2.468-1.043 3.808l-.036 31.849-111.363-.124.034-30.193c.001-1.516-.456-2.996-1.312-4.247l-15.086-22.026c-8.145-11.891-12.441-25.795-12.425-40.209l.066-59.351c.003-2.905 1.138-5.635 3.194-7.687 2.053-2.048 4.781-3.176 7.681-3.176h.013c5.997.007 10.87 4.891 10.863 10.887l-.029 25.889c-.004 4.142 3.35 7.504 7.492 7.508h.008c4.138 0 7.496-3.353 7.5-7.492l.029-25.889.084-76.005c.003-2.519.986-4.886 2.77-6.665 1.78-1.776 4.146-2.754 6.66-2.754h.011c2.519.003 4.886.986 6.665 2.77s2.757 4.152 2.754 6.671l-.084 76.005c-.004 4.142 3.35 7.504 7.492 7.508h.008c3.88 0 7.073-2.947 7.461-6.725.026-.252.039-.508.039-.766l.102-91.063c.003-2.519.986-4.886 2.77-6.665 1.78-1.776 4.145-2.754 6.66-2.754h.011c2.519.003 4.886.986 6.665 2.77 1.779 1.783 2.757 4.152 2.754 6.671l-.101 91.063c-.004 4.142 3.35 7.504 7.492 7.508h.008c3.88 0 7.073-2.947 7.461-6.725.026-.252.039-.508.039-.766l.078-70.287c.003-2.519.986-4.886 2.77-6.665 1.78-1.777 4.146-2.755 6.661-2.755h.01c5.2.006 9.426 4.241 9.42 9.441l-.078 70.287c-.004 4.142 3.35 7.504 7.492 7.508h.008c3.88 0 7.073-2.947 7.461-6.725.026-.252.039-.508.039-.766l.062-55.629c.009-5.193 4.237-9.414 9.43-9.414h.01c2.519.003 4.886.986 6.665 2.77 1.779 1.783 2.757 4.152 2.754 6.671l-.087 78.838c-.004 4.142 3.35 7.504 7.492 7.508h.008c4.138 0 7.496-3.353 7.5-7.492l.075-67.793c2.764 1.169 5.741 1.857 8.828 2.008.433.021.864.032 1.295.032 6.433 0 12.551-2.355 17.35-6.707l43.969-39.866c12.934-11.727 21.897-26.904 25.922-43.891l5.619-23.714 23.328-21.151c.716.126 1.439.224 2.176.26.289.014.577.021.864.021 4.295 0 8.38-1.573 11.584-4.479l22.169-20.1c3.071-2.782 3.302-7.525.52-10.594z"/></svg>