<svg id="Capa_1" enable-background="new 0 0 511.246 511.246" height="512" viewBox="0 0 511.246 511.246" width="512" xmlns="http://www.w3.org/2000/svg"><g><path d="m503.746 421.102h-12.415v-264.343c0-27.021-21.984-49.005-49.006-49.005h-55.814c-4.143 0-7.5 3.357-7.5 7.5s3.357 7.5 7.5 7.5h55.814c18.751 0 34.006 15.255 34.006 34.005v264.343h-167.653c-5.118 0-9.893 2.525-12.771 6.756l-2.249 3.305c-2.09 3.071-5.555 4.904-9.27 4.904h-58.531c-3.715 0-7.18-1.833-9.27-4.904l-2.248-3.304c-2.878-4.23-7.652-6.757-12.771-6.757h-166.653v-264.343c0-18.75 15.255-34.005 34.006-34.005h48.304c4.143 0 7.5-3.357 7.5-7.5s-3.357-7.5-7.5-7.5h-48.304c-27.021 0-49.006 21.983-49.006 49.005v264.343h-12.415c-4.143 0-7.5 3.357-7.5 7.5v15.615c0 28.231 22.968 51.199 51.199 51.199h408.848c28.231 0 51.199-22.968 51.199-51.199v-15.615c0-4.143-3.357-7.5-7.5-7.5zm-7.5 23.115c0 19.96-16.239 36.199-36.199 36.199h-408.848c-19.96 0-36.199-16.239-36.199-36.199v-8.115h186.568c.148 0 .286.072.37.195l2.249 3.305c4.886 7.179 12.986 11.465 21.67 11.465h58.531c8.684 0 16.784-4.286 21.67-11.465l2.249-3.305.001-.001c.083-.122.221-.194.369-.194h187.568v8.115z"/><path d="m51.915 396.602c0 4.143 3.357 7.5 7.5 7.5h392.416c4.143 0 7.5-3.357 7.5-7.5v-239.843c0-9.377-7.629-17.006-17.006-17.006h-55.814c-4.143 0-7.5 3.357-7.5 7.5s3.357 7.5 7.5 7.5h55.814c1.106 0 2.006.899 2.006 2.006v232.343h-108.796v-30.622c0-16.285-6.342-31.595-17.857-43.111l-9.765-9.765c3.464-5.372 6.147-11.335 7.844-17.764 1.057-4.005-1.333-8.108-5.338-9.166-4.007-1.054-8.107 1.333-9.166 5.338-1.738 6.584-4.83 12.532-8.923 17.586-.03.036-.06.071-.089.106-8.76 10.754-22.076 17.421-36.618 17.421-26.024 0-47.197-21.173-47.197-47.197s21.173-47.197 47.197-47.197c20.082 0 37.999 12.745 44.586 31.715 1.358 3.912 5.626 5.984 9.545 4.625 3.913-1.358 5.983-5.632 4.625-9.545-8.68-24.999-32.292-41.795-58.756-41.795-34.296 0-62.197 27.901-62.197 62.197 0 12.394 3.658 23.943 9.931 33.652l-9.789 9.789c-11.516 11.517-17.857 26.826-17.857 43.111v30.622h-108.796v-27.477c0-4.143-3.357-7.5-7.5-7.5s-7.5 3.357-7.5 7.5zm138.796-38.123c0-12.278 4.782-23.821 13.465-32.504l8.819-8.819c11.142 10.508 26.141 16.968 42.628 16.968 16.28 0 31.391-6.347 42.651-16.946l8.797 8.796c8.683 8.683 13.465 20.226 13.465 32.504v30.622h-129.825z"/><path d="m59.415 337.135c4.143 0 7.5-3.357 7.5-7.5v-172.876c0-1.106.899-2.006 2.005-2.006h48.305c4.143 0 7.5-3.357 7.5-7.5s-3.357-7.5-7.5-7.5h-48.305c-9.377 0-17.005 7.629-17.005 17.006v172.876c0 4.142 3.357 7.5 7.5 7.5z"/><path d="m172.329 193.88h159.077c17.979 0 32.604-14.626 32.604-32.604v-112.84c0-17.979-14.626-32.605-32.604-32.605h-159.077c-17.979 0-32.604 14.627-32.604 32.605v15.707c0 4.143 3.357 7.5 7.5 7.5s7.5-3.357 7.5-7.5v-15.707c0-9.708 7.897-17.605 17.604-17.605h159.077c9.707 0 17.604 7.897 17.604 17.605v112.84c0 9.707-7.897 17.604-17.604 17.604h-159.077c-9.707 0-17.604-7.897-17.604-17.604v-65.144c0-4.143-3.357-7.5-7.5-7.5s-7.5 3.357-7.5 7.5v65.144c0 17.978 14.626 32.604 32.604 32.604z"/><path d="m231.844 151.344c3.369 0 6.737-.9 9.8-2.699l46.131-27.104c5.979-3.514 9.548-9.751 9.548-16.686s-3.57-13.172-9.548-16.684l-46.132-27.104c-6.057-3.559-13.316-3.601-19.414-.11-6.099 3.49-9.739 9.769-9.739 16.795v54.208c0 7.026 3.641 13.306 9.739 16.796 3.016 1.725 6.316 2.588 9.615 2.588zm-4.355-73.593c0-2.277 1.531-3.399 2.189-3.776.397-.227 1.188-.591 2.186-.591.655 0 1.4.158 2.18.616l46.132 27.104c1.938 1.138 2.146 3.002 2.146 3.75 0 .749-.209 2.613-2.147 3.752l-46.13 27.104c-1.965 1.154-3.707.401-4.365.025-.659-.377-2.19-1.5-2.19-3.777v-54.207z"/></g></svg>